<svg viewBox="0 0 365 90" shape-rendering="crispEdges" xmlns="http://www.w3.org/2000/svg"><path d="m30 59.9h-10v-30h10zm0-30v-10h20v10zm20 30v10h-20v-10zm0-20v-10h10v10zm10 20h-10v-10h10z"/><path d="m80 69.9h-10v-50h10v20h20v-20h10v50h-10v-20h-20z"/><path d="m215 69.9h-10v-50h10v10h10v10h-10zm30 0h-10v-20h-10v-10h10v-20h10z"/><path d="m265 69.9h-10v-50h10v20h10v10h-10zm10-30v-10h10v10zm10 20h-10v-10h10zm0-30v-10h10v10zm0 40v-10h10v10z"/><path d="m305 39.9v-10h10v10zm30 20v10h-30v-10zm-20-30v-10h30v10zm0 10h20v10h-20zm30 20h-10v-10h10z"/><g fill="#efb15e"><path d="m159.7 63h7.1v7.1h-7.1z"/><path d="m166.8 63h7.1v7.1h-7.1z"/><path d="m131.3 20.5h7.1v7.1h-7.1z"/><path d="m152.6 41.7h7.1v7.1h-7.1z"/><path d="m138.4 20.5h7.1v7.1h-7.1z"/><path d="m145.5 20.5h7.1v7.1h-7.1z"/><path d="m152.6 20.5h7.1v7.1h-7.1z"/><path d="m159.7 20.5h7.1v7.1h-7.1z"/><path d="m166.8 20.5h7.1v7.1h-7.1z"/><path d="m173.9 20.5h7.1v7.1h-7.1z"/><path d="m181 20.5h7.1v7.1h-7.1z"/><path d="m124.2 27.6h7.1v7.1h-7.1z"/><path d="m131.3 27.6h7.1v7.1h-7.1z"/><path d="m138.4 27.6h7.1v7.1h-7.1z"/><path d="m145.5 27.6h7.1v7.1h-7.1z"/><path d="m152.6 27.6h7.1v7.1h-7.1z"/><path d="m159.7 27.6h7.1v7.1h-7.1z"/><path d="m166.8 27.6h7.1v7.1h-7.1z"/><path d="m173.9 27.6h7.1v7.1h-7.1z"/><path d="m181 27.6h7.1v7.1h-7.1z"/><path d="m188.1 27.6h7.1v7.1h-7.1z"/><path d="m124.2 34.7h7.1v7.1h-7.1z"/><path d="m131.3 34.7h7.1v7.1h-7.1z"/><path d="m138.4 34.7h7.1v7.1h-7.1z"/><path d="m145.5 34.7h7.1v7.1h-7.1z"/><path d="m152.6 34.7h7.1v7.1h-7.1z"/><path d="m159.7 34.7h7.1v7.1h-7.1z"/><path d="m166.8 34.7h7.1v7.1h-7.1z"/><path d="m173.9 34.7h7.1v7.1h-7.1z"/><path d="m181 34.7h7.1v7.1h-7.1z"/><path d="m188.1 34.7h7.1v7.1h-7.1z"/><path d="m124.2 41.7h7.1v7.1h-7.1z"/><path d="m131.3 41.7h7.1v7.1h-7.1z"/><path d="m159.7 41.7h7.1v7.1h-7.1z"/><path d="m166.8 41.7h7.1v7.1h-7.1z"/><path d="m124.2 48.8h7.1v7.1h-7.1z"/><path d="m131.3 48.8h7.1v7.1h-7.1z"/><path d="m124.2 55.9h7.1v7.1h-7.1z"/><path d="m131.3 55.9h7.1v7.1h-7.1z"/><path d="m145.5 55.9h7.1v7.1h-7.1z"/><path d="m152.6 55.9h7.1v7.1h-7.1z"/><path d="m159.7 55.9h7.1v7.1h-7.1z"/><path d="m166.8 55.9h7.1v7.1h-7.1z"/><path d="m173.9 55.9h7.1v7.1h-7.1z"/><path d="m181 55.9h7.1v7.1h-7.1z"/><path d="m188.1 55.9h7.1v7.1h-7.1z"/><path d="m131.3 63h7.1v7.1h-7.1z"/><path d="m138.4 63h7.1v7.1h-7.1z"/><path d="m145.5 63h7.1v7.1h-7.1z"/><path d="m152.6 63h7.1v7.1h-7.1z"/><path d="m173.9 63h7.1v7.1h-7.1z"/><path d="m181 63h7.1v7.1h-7.1z"/><path d="m138.4 55.9h7.1v7.1h-7.1z"/><path d="m188.1 48.8h7.1v7.1h-7.1z"/><path d="m188.1 41.7h7.1v7.1h-7.1z"/></g><path d="m117.2 41.7h7.1v7.1h-7.1z" fill="#d69743"/><path d="m117.2 48.8h7.1v7.1h-7.1z" fill="#d69743"/><path d="m181 41.7h7.1v7.1h-7.1z"/><path d="m181 48.8h7.1v7.1h-7.1z"/><path d="m173.9 48.8h7.1v7.1h-7.1z" fill="#fff"/><path d="m173.9 41.7h7.1v7.1h-7.1z" fill="#fff"/><path d="m145.5 41.7h7.1v7.1h-7.1z"/><path d="m138.4 41.7h7.1v7.1h-7.1z" fill="#fff"/><path d="m138.4 48.8h7.1v7.1h-7.1z" fill="#fff"/><path d="m145.5 48.8h7.1v7.1h-7.1z"/><path d="m159.7 48.8h7.1v7.1h-7.1z" fill="#d69743"/><path d="m152.6 48.8h7.1v7.1h-7.1z" fill="#d69743"/><path d="m166.8 48.8h7.1v7.1h-7.1z" fill="#d69743"/></svg>
