<svg width="30" height="30" viewBox="0 0 30 30" fill="none" xmlns="http://www.w3.org/2000/svg">
<g clip-path="url(#clip0_3826_2485)">
<rect width="30" height="30" rx="5" fill="url(#paint0_linear_3826_2485)"/>
<path d="M7.63333 26.5V27.5H8.65V26.5H7.63333Z" fill="white" fill-opacity="0.3"/>
<path d="M16.7833 26.5V27.5H17.8V26.5H16.7833Z" fill="white" fill-opacity="0.3"/>
<path d="M25.9333 26.5V27.5H26.95V26.5H25.9333Z" fill="white" fill-opacity="0.3"/>
<path d="M6.61667 26.5V27.5H7.63334V26.5H6.61667Z" fill="white" fill-opacity="0.3"/>
<path d="M15.7667 26.5V27.5H16.7833V26.5H15.7667Z" fill="white" fill-opacity="0.3"/>
<path d="M24.9167 26.5V27.5H25.9333V26.5H24.9167Z" fill="white" fill-opacity="0.3"/>
<path d="M5.60001 26.5V27.5H6.61667V26.5H5.60001Z" fill="white" fill-opacity="0.3"/>
<path d="M14.75 26.5V27.5H15.7667V26.5H14.75Z" fill="white" fill-opacity="0.3"/>
<path d="M23.9 26.5V27.5H24.9167V26.5H23.9Z" fill="white" fill-opacity="0.3"/>
<path d="M4.58334 26.5V27.5H5.60001V26.5H4.58334Z" fill="white" fill-opacity="0.3"/>
<path d="M13.7333 26.5V27.5H14.75V26.5H13.7333Z" fill="white" fill-opacity="0.3"/>
<path d="M22.8833 26.5V27.5H23.9V26.5H22.8833Z" fill="white" fill-opacity="0.3"/>
<path d="M3.56668 26.5V27.5H4.58335V26.5H3.56668Z" fill="white" fill-opacity="0.3"/>
<path d="M12.7167 26.5V27.5H13.7333V26.5H12.7167Z" fill="white" fill-opacity="0.3"/>
<path d="M21.8667 26.5V27.5H22.8833V26.5H21.8667Z" fill="white" fill-opacity="0.3"/>
<path d="M2.54999 26.5V27.5H3.56665V26.5H2.54999Z" fill="white" fill-opacity="0.3"/>
<path d="M11.7 26.5V27.5H12.7167V26.5H11.7Z" fill="white" fill-opacity="0.3"/>
<path d="M20.85 26.5V27.5H21.8667V26.5H20.85Z" fill="white" fill-opacity="0.3"/>
<path d="M1.53333 26.5V27.5H2.54999V26.5H1.53333Z" fill="white" fill-opacity="0.3"/>
<path d="M10.6833 26.5V27.5H11.7V26.5H10.6833Z" fill="white" fill-opacity="0.3"/>
<path d="M19.8333 26.5V27.5H20.85V26.5H19.8333Z" fill="white" fill-opacity="0.3"/>
<path d="M0.516663 26.5L0.516663 27.5H1.53333V26.5H0.516663Z" fill="white" fill-opacity="0.3"/>
<path d="M9.66666 26.5V27.5H10.6833V26.5H9.66666Z" fill="white" fill-opacity="0.3"/>
<path d="M18.8167 26.5V27.5H19.8333V26.5H18.8167Z" fill="white" fill-opacity="0.3"/>
<path d="M-0.5 26.5L-0.5 27.5H0.516667V26.5H-0.5Z" fill="white" fill-opacity="0.3"/>
<path d="M8.64999 26.5V27.5H9.66666V26.5H8.64999Z" fill="white" fill-opacity="0.3"/>
<path d="M17.8 26.5V27.5H18.8167V26.5H17.8Z" fill="white" fill-opacity="0.3"/>
<path d="M28.9833 26.5V27.5H30V26.5H28.9833Z" fill="white" fill-opacity="0.3"/>
<path d="M27.9667 26.5V27.5H28.9833V26.5H27.9667Z" fill="white" fill-opacity="0.3"/>
<path d="M26.95 26.5V27.5H27.9667V26.5H26.95Z" fill="white" fill-opacity="0.3"/>
<path d="M7.63333 23.5V24.5H8.65V23.5H7.63333Z" fill="white" fill-opacity="0.3"/>
<path d="M16.7833 23.5V24.5H17.8V23.5H16.7833Z" fill="white" fill-opacity="0.3"/>
<path d="M25.9333 23.5V24.5H26.95V23.5H25.9333Z" fill="white" fill-opacity="0.3"/>
<path d="M6.61667 23.5V24.5H7.63334V23.5H6.61667Z" fill="white" fill-opacity="0.3"/>
<path d="M15.7667 23.5V24.5H16.7833V23.5H15.7667Z" fill="white" fill-opacity="0.3"/>
<path d="M24.9167 23.5V24.5H25.9333V23.5H24.9167Z" fill="white" fill-opacity="0.3"/>
<path d="M5.60001 23.5V24.5H6.61667V23.5H5.60001Z" fill="white" fill-opacity="0.3"/>
<path d="M14.75 23.5V24.5H15.7667V23.5H14.75Z" fill="white" fill-opacity="0.3"/>
<path d="M23.9 23.5V24.5H24.9167V23.5H23.9Z" fill="white" fill-opacity="0.3"/>
<path d="M4.58334 23.5V24.5H5.60001V23.5H4.58334Z" fill="white" fill-opacity="0.3"/>
<path d="M13.7333 23.5V24.5H14.75V23.5H13.7333Z" fill="white" fill-opacity="0.3"/>
<path d="M22.8833 23.5V24.5H23.9V23.5H22.8833Z" fill="white" fill-opacity="0.3"/>
<path d="M3.56668 23.5V24.5H4.58335V23.5H3.56668Z" fill="white" fill-opacity="0.3"/>
<path d="M12.7167 23.5V24.5H13.7333V23.5H12.7167Z" fill="white" fill-opacity="0.3"/>
<path d="M21.8667 23.5V24.5H22.8833V23.5H21.8667Z" fill="white" fill-opacity="0.3"/>
<path d="M2.54999 23.5V24.5H3.56665V23.5H2.54999Z" fill="white" fill-opacity="0.3"/>
<path d="M11.7 23.5V24.5H12.7167V23.5H11.7Z" fill="white" fill-opacity="0.3"/>
<path d="M20.85 23.5V24.5H21.8667V23.5H20.85Z" fill="white" fill-opacity="0.3"/>
<path d="M1.53333 23.5V24.5H2.54999V23.5H1.53333Z" fill="white" fill-opacity="0.3"/>
<path d="M10.6833 23.5V24.5H11.7V23.5H10.6833Z" fill="white" fill-opacity="0.3"/>
<path d="M19.8333 23.5V24.5H20.85V23.5H19.8333Z" fill="white" fill-opacity="0.3"/>
<path d="M0.516663 23.5L0.516663 24.5H1.53333V23.5H0.516663Z" fill="white" fill-opacity="0.3"/>
<path d="M9.66666 23.5V24.5H10.6833V23.5H9.66666Z" fill="white" fill-opacity="0.3"/>
<path d="M18.8167 23.5V24.5H19.8333V23.5H18.8167Z" fill="white" fill-opacity="0.3"/>
<path d="M-0.5 23.5L-0.5 24.5H0.516667V23.5H-0.5Z" fill="white" fill-opacity="0.3"/>
<path d="M8.64999 23.5V24.5H9.66666V23.5H8.64999Z" fill="white" fill-opacity="0.3"/>
<path d="M17.8 23.5V24.5H18.8167V23.5H17.8Z" fill="white" fill-opacity="0.3"/>
<path d="M28.9833 23.5V24.5H30V23.5H28.9833Z" fill="white" fill-opacity="0.3"/>
<path d="M27.9667 23.5V24.5H28.9833V23.5H27.9667Z" fill="white" fill-opacity="0.3"/>
<path d="M26.95 23.5V24.5H27.9667V23.5H26.95Z" fill="white" fill-opacity="0.3"/>
<path d="M7.63333 20.5V21.5H8.65V20.5H7.63333Z" fill="white" fill-opacity="0.3"/>
<path d="M16.7833 20.5V21.5H17.8V20.5H16.7833Z" fill="white" fill-opacity="0.3"/>
<path d="M25.9333 20.5V21.5H26.95V20.5H25.9333Z" fill="white" fill-opacity="0.3"/>
<path d="M6.61667 20.5V21.5H7.63334V20.5H6.61667Z" fill="white" fill-opacity="0.3"/>
<path d="M15.7667 20.5V21.5H16.7833V20.5H15.7667Z" fill="white" fill-opacity="0.3"/>
<path d="M24.9167 20.5V21.5H25.9333V20.5H24.9167Z" fill="white" fill-opacity="0.3"/>
<path d="M5.60001 20.5V21.5H6.61667V20.5H5.60001Z" fill="white" fill-opacity="0.3"/>
<path d="M14.75 20.5V21.5H15.7667V20.5H14.75Z" fill="white" fill-opacity="0.3"/>
<path d="M23.9 20.5V21.5H24.9167V20.5H23.9Z" fill="white" fill-opacity="0.3"/>
<path d="M4.58334 20.5V21.5H5.60001V20.5H4.58334Z" fill="white" fill-opacity="0.3"/>
<path d="M13.7333 20.5V21.5H14.75V20.5H13.7333Z" fill="white" fill-opacity="0.3"/>
<path d="M22.8833 20.5V21.5H23.9V20.5H22.8833Z" fill="white" fill-opacity="0.3"/>
<path d="M3.56668 20.5V21.5H4.58335V20.5H3.56668Z" fill="white" fill-opacity="0.3"/>
<path d="M12.7167 20.5V21.5H13.7333V20.5H12.7167Z" fill="white" fill-opacity="0.3"/>
<path d="M21.8667 20.5V21.5H22.8833V20.5H21.8667Z" fill="white" fill-opacity="0.3"/>
<path d="M2.54999 20.5V21.5H3.56665V20.5H2.54999Z" fill="white" fill-opacity="0.3"/>
<path d="M11.7 20.5V21.5H12.7167V20.5H11.7Z" fill="white" fill-opacity="0.3"/>
<path d="M20.85 20.5V21.5H21.8667V20.5H20.85Z" fill="white" fill-opacity="0.3"/>
<path d="M1.53333 20.5V21.5H2.54999V20.5H1.53333Z" fill="white" fill-opacity="0.3"/>
<path d="M10.6833 20.5V21.5H11.7V20.5H10.6833Z" fill="white" fill-opacity="0.3"/>
<path d="M19.8333 20.5V21.5H20.85V20.5H19.8333Z" fill="white" fill-opacity="0.3"/>
<path d="M0.516663 20.5L0.516663 21.5H1.53333V20.5H0.516663Z" fill="white" fill-opacity="0.3"/>
<path d="M9.66666 20.5V21.5H10.6833V20.5H9.66666Z" fill="white" fill-opacity="0.3"/>
<path d="M18.8167 20.5V21.5H19.8333V20.5H18.8167Z" fill="white" fill-opacity="0.3"/>
<path d="M-0.5 20.5L-0.5 21.5H0.516667V20.5H-0.5Z" fill="white" fill-opacity="0.3"/>
<path d="M8.64999 20.5V21.5H9.66666V20.5H8.64999Z" fill="white" fill-opacity="0.3"/>
<path d="M17.8 20.5V21.5H18.8167V20.5H17.8Z" fill="white" fill-opacity="0.3"/>
<path d="M28.9833 20.5V21.5H30V20.5H28.9833Z" fill="white" fill-opacity="0.3"/>
<path d="M27.9667 20.5V21.5H28.9833V20.5H27.9667Z" fill="white" fill-opacity="0.3"/>
<path d="M26.95 20.5V21.5H27.9667V20.5H26.95Z" fill="white" fill-opacity="0.3"/>
<path d="M7.63333 17.5V18.5H8.65V17.5H7.63333Z" fill="white" fill-opacity="0.3"/>
<path d="M16.7833 17.5V18.5H17.8V17.5H16.7833Z" fill="white" fill-opacity="0.3"/>
<path d="M25.9333 17.5V18.5H26.95V17.5H25.9333Z" fill="white" fill-opacity="0.3"/>
<path d="M6.61667 17.5V18.5H7.63334V17.5H6.61667Z" fill="white" fill-opacity="0.3"/>
<path d="M15.7667 17.5V18.5H16.7833V17.5H15.7667Z" fill="white" fill-opacity="0.3"/>
<path d="M24.9167 17.5V18.5H25.9333V17.5H24.9167Z" fill="white" fill-opacity="0.3"/>
<path d="M5.60001 17.5V18.5H6.61667V17.5H5.60001Z" fill="white" fill-opacity="0.3"/>
<path d="M14.75 17.5V18.5H15.7667V17.5H14.75Z" fill="white" fill-opacity="0.3"/>
<path d="M23.9 17.5V18.5H24.9167V17.5H23.9Z" fill="white" fill-opacity="0.3"/>
<path d="M4.58334 17.5V18.5H5.60001V17.5H4.58334Z" fill="white" fill-opacity="0.3"/>
<path d="M13.7333 17.5V18.5H14.75V17.5H13.7333Z" fill="white" fill-opacity="0.3"/>
<path d="M22.8833 17.5V18.5H23.9V17.5H22.8833Z" fill="white" fill-opacity="0.3"/>
<path d="M3.56668 17.5V18.5H4.58335V17.5H3.56668Z" fill="white" fill-opacity="0.3"/>
<path d="M12.7167 17.5V18.5H13.7333V17.5H12.7167Z" fill="white" fill-opacity="0.3"/>
<path d="M21.8667 17.5V18.5H22.8833V17.5H21.8667Z" fill="white" fill-opacity="0.3"/>
<path d="M2.54999 17.5V18.5H3.56665V17.5H2.54999Z" fill="white" fill-opacity="0.3"/>
<path d="M11.7 17.5V18.5H12.7167V17.5H11.7Z" fill="white" fill-opacity="0.3"/>
<path d="M20.85 17.5V18.5H21.8667V17.5H20.85Z" fill="white" fill-opacity="0.3"/>
<path d="M1.53333 17.5V18.5H2.54999V17.5H1.53333Z" fill="white" fill-opacity="0.3"/>
<path d="M10.6833 17.5V18.5H11.7V17.5H10.6833Z" fill="white" fill-opacity="0.3"/>
<path d="M19.8333 17.5V18.5H20.85V17.5H19.8333Z" fill="white" fill-opacity="0.3"/>
<path d="M0.516663 17.5L0.516663 18.5H1.53333V17.5H0.516663Z" fill="white" fill-opacity="0.3"/>
<path d="M9.66666 17.5V18.5H10.6833V17.5H9.66666Z" fill="white" fill-opacity="0.3"/>
<path d="M18.8167 17.5V18.5H19.8333V17.5H18.8167Z" fill="white" fill-opacity="0.3"/>
<path d="M-0.5 17.5L-0.5 18.5H0.516667V17.5H-0.5Z" fill="white" fill-opacity="0.3"/>
<path d="M8.64999 17.5V18.5H9.66666V17.5H8.64999Z" fill="white" fill-opacity="0.3"/>
<path d="M17.8 17.5V18.5H18.8167V17.5H17.8Z" fill="white" fill-opacity="0.3"/>
<path d="M28.9833 17.5V18.5H30V17.5H28.9833Z" fill="white" fill-opacity="0.3"/>
<path d="M27.9667 17.5V18.5H28.9833V17.5H27.9667Z" fill="white" fill-opacity="0.3"/>
<path d="M26.95 17.5V18.5H27.9667V17.5H26.95Z" fill="white" fill-opacity="0.3"/>
<path d="M7.63333 14.5V15.5H8.65V14.5H7.63333Z" fill="white" fill-opacity="0.3"/>
<path d="M16.7833 14.5V15.5H17.8V14.5H16.7833Z" fill="white" fill-opacity="0.3"/>
<path d="M25.9333 14.5V15.5H26.95V14.5H25.9333Z" fill="white" fill-opacity="0.3"/>
<path d="M6.61667 14.5V15.5H7.63334V14.5H6.61667Z" fill="white" fill-opacity="0.3"/>
<path d="M15.7667 14.5V15.5H16.7833V14.5H15.7667Z" fill="white" fill-opacity="0.3"/>
<path d="M24.9167 14.5V15.5H25.9333V14.5H24.9167Z" fill="white" fill-opacity="0.3"/>
<path d="M5.60001 14.5V15.5H6.61667V14.5H5.60001Z" fill="white" fill-opacity="0.3"/>
<path d="M14.75 14.5V15.5H15.7667V14.5H14.75Z" fill="white" fill-opacity="0.3"/>
<path d="M23.9 14.5V15.5H24.9167V14.5H23.9Z" fill="white" fill-opacity="0.3"/>
<path d="M4.58334 14.5V15.5H5.60001V14.5H4.58334Z" fill="white" fill-opacity="0.3"/>
<path d="M13.7333 14.5V15.5H14.75V14.5H13.7333Z" fill="white" fill-opacity="0.3"/>
<path d="M22.8833 14.5V15.5H23.9V14.5H22.8833Z" fill="white" fill-opacity="0.3"/>
<path d="M3.56668 14.5V15.5H4.58335V14.5H3.56668Z" fill="white" fill-opacity="0.3"/>
<path d="M12.7167 14.5V15.5H13.7333V14.5H12.7167Z" fill="white" fill-opacity="0.3"/>
<path d="M21.8667 14.5V15.5H22.8833V14.5H21.8667Z" fill="white" fill-opacity="0.3"/>
<path d="M2.54999 14.5V15.5H3.56665V14.5H2.54999Z" fill="white" fill-opacity="0.3"/>
<path d="M11.7 14.5V15.5H12.7167V14.5H11.7Z" fill="white" fill-opacity="0.3"/>
<path d="M20.85 14.5V15.5H21.8667V14.5H20.85Z" fill="white" fill-opacity="0.3"/>
<path d="M1.53333 14.5V15.5H2.54999V14.5H1.53333Z" fill="white" fill-opacity="0.3"/>
<path d="M10.6833 14.5V15.5H11.7V14.5H10.6833Z" fill="white" fill-opacity="0.3"/>
<path d="M19.8333 14.5V15.5H20.85V14.5H19.8333Z" fill="white" fill-opacity="0.3"/>
<path d="M0.516663 14.5L0.516663 15.5H1.53333V14.5H0.516663Z" fill="white" fill-opacity="0.3"/>
<path d="M9.66666 14.5V15.5H10.6833V14.5H9.66666Z" fill="white" fill-opacity="0.3"/>
<path d="M18.8167 14.5V15.5H19.8333V14.5H18.8167Z" fill="white" fill-opacity="0.3"/>
<path d="M-0.5 14.5L-0.5 15.5H0.516667V14.5H-0.5Z" fill="white" fill-opacity="0.3"/>
<path d="M8.64999 14.5V15.5H9.66666V14.5H8.64999Z" fill="white" fill-opacity="0.3"/>
<path d="M17.8 14.5V15.5H18.8167V14.5H17.8Z" fill="white" fill-opacity="0.3"/>
<path d="M28.9833 14.5V15.5H30V14.5H28.9833Z" fill="white" fill-opacity="0.3"/>
<path d="M27.9667 14.5V15.5H28.9833V14.5H27.9667Z" fill="white" fill-opacity="0.3"/>
<path d="M26.95 14.5V15.5H27.9667V14.5H26.95Z" fill="white" fill-opacity="0.3"/>
<path d="M7.63333 11.5V12.5H8.65V11.5H7.63333Z" fill="white" fill-opacity="0.3"/>
<path d="M16.7833 11.5V12.5H17.8V11.5H16.7833Z" fill="white" fill-opacity="0.3"/>
<path d="M25.9333 11.5V12.5H26.95V11.5H25.9333Z" fill="white" fill-opacity="0.3"/>
<path d="M6.61667 11.5V12.5H7.63334V11.5H6.61667Z" fill="white" fill-opacity="0.3"/>
<path d="M15.7667 11.5V12.5H16.7833V11.5H15.7667Z" fill="white" fill-opacity="0.3"/>
<path d="M24.9167 11.5V12.5H25.9333V11.5H24.9167Z" fill="white" fill-opacity="0.3"/>
<path d="M5.60001 11.5V12.5H6.61667V11.5H5.60001Z" fill="white" fill-opacity="0.3"/>
<path d="M14.75 11.5V12.5H15.7667V11.5H14.75Z" fill="white" fill-opacity="0.3"/>
<path d="M23.9 11.5V12.5H24.9167V11.5H23.9Z" fill="white" fill-opacity="0.3"/>
<path d="M4.58334 11.5V12.5H5.60001V11.5H4.58334Z" fill="white" fill-opacity="0.3"/>
<path d="M13.7333 11.5V12.5H14.75V11.5H13.7333Z" fill="white" fill-opacity="0.3"/>
<path d="M22.8833 11.5V12.5H23.9V11.5H22.8833Z" fill="white" fill-opacity="0.3"/>
<path d="M3.56668 11.5V12.5H4.58335V11.5H3.56668Z" fill="white" fill-opacity="0.3"/>
<path d="M12.7167 11.5V12.5H13.7333V11.5H12.7167Z" fill="white" fill-opacity="0.3"/>
<path d="M21.8667 11.5V12.5H22.8833V11.5H21.8667Z" fill="white" fill-opacity="0.3"/>
<path d="M2.54999 11.5V12.5H3.56665V11.5H2.54999Z" fill="white" fill-opacity="0.3"/>
<path d="M11.7 11.5V12.5H12.7167V11.5H11.7Z" fill="white" fill-opacity="0.3"/>
<path d="M20.85 11.5V12.5H21.8667V11.5H20.85Z" fill="white" fill-opacity="0.3"/>
<path d="M1.53333 11.5V12.5H2.54999V11.5H1.53333Z" fill="white" fill-opacity="0.3"/>
<path d="M10.6833 11.5V12.5H11.7V11.5H10.6833Z" fill="white" fill-opacity="0.3"/>
<path d="M19.8333 11.5V12.5H20.85V11.5H19.8333Z" fill="white" fill-opacity="0.3"/>
<path d="M0.516663 11.5L0.516663 12.5H1.53333V11.5H0.516663Z" fill="white" fill-opacity="0.3"/>
<path d="M9.66666 11.5V12.5H10.6833V11.5H9.66666Z" fill="white" fill-opacity="0.3"/>
<path d="M18.8167 11.5V12.5H19.8333V11.5H18.8167Z" fill="white" fill-opacity="0.3"/>
<path d="M-0.5 11.5L-0.5 12.5H0.516667V11.5H-0.5Z" fill="white" fill-opacity="0.3"/>
<path d="M8.64999 11.5V12.5H9.66666V11.5H8.64999Z" fill="white" fill-opacity="0.3"/>
<path d="M17.8 11.5V12.5H18.8167V11.5H17.8Z" fill="white" fill-opacity="0.3"/>
<path d="M28.9833 11.5V12.5H30V11.5H28.9833Z" fill="white" fill-opacity="0.3"/>
<path d="M27.9667 11.5V12.5H28.9833V11.5H27.9667Z" fill="white" fill-opacity="0.3"/>
<path d="M26.95 11.5V12.5H27.9667V11.5H26.95Z" fill="white" fill-opacity="0.3"/>
<path d="M7.63333 8.5V9.5H8.65V8.5H7.63333Z" fill="white" fill-opacity="0.3"/>
<path d="M16.7833 8.5V9.5H17.8V8.5H16.7833Z" fill="white" fill-opacity="0.3"/>
<path d="M25.9333 8.5V9.5H26.95V8.5H25.9333Z" fill="white" fill-opacity="0.3"/>
<path d="M6.61667 8.5V9.5H7.63334V8.5H6.61667Z" fill="white" fill-opacity="0.3"/>
<path d="M15.7667 8.5V9.5H16.7833V8.5H15.7667Z" fill="white" fill-opacity="0.3"/>
<path d="M24.9167 8.5V9.5H25.9333V8.5H24.9167Z" fill="white" fill-opacity="0.3"/>
<path d="M5.60001 8.5V9.5H6.61667V8.5H5.60001Z" fill="white" fill-opacity="0.3"/>
<path d="M14.75 8.5V9.5H15.7667V8.5H14.75Z" fill="white" fill-opacity="0.3"/>
<path d="M23.9 8.5V9.5H24.9167V8.5H23.9Z" fill="white" fill-opacity="0.3"/>
<path d="M4.58334 8.5V9.5H5.60001V8.5H4.58334Z" fill="white" fill-opacity="0.3"/>
<path d="M13.7333 8.5V9.5H14.75V8.5H13.7333Z" fill="white" fill-opacity="0.3"/>
<path d="M22.8833 8.5V9.5H23.9V8.5H22.8833Z" fill="white" fill-opacity="0.3"/>
<path d="M3.56668 8.5V9.5H4.58335V8.5H3.56668Z" fill="white" fill-opacity="0.3"/>
<path d="M12.7167 8.5V9.5H13.7333V8.5H12.7167Z" fill="white" fill-opacity="0.3"/>
<path d="M21.8667 8.5V9.5H22.8833V8.5H21.8667Z" fill="white" fill-opacity="0.3"/>
<path d="M2.54999 8.5V9.5H3.56665V8.5H2.54999Z" fill="white" fill-opacity="0.3"/>
<path d="M11.7 8.5V9.5H12.7167V8.5H11.7Z" fill="white" fill-opacity="0.3"/>
<path d="M20.85 8.5V9.5H21.8667V8.5H20.85Z" fill="white" fill-opacity="0.3"/>
<path d="M1.53333 8.5V9.5H2.54999V8.5H1.53333Z" fill="white" fill-opacity="0.3"/>
<path d="M10.6833 8.5V9.5H11.7V8.5H10.6833Z" fill="white" fill-opacity="0.3"/>
<path d="M19.8333 8.5V9.5H20.85V8.5H19.8333Z" fill="white" fill-opacity="0.3"/>
<path d="M0.516663 8.5L0.516663 9.5H1.53333V8.5H0.516663Z" fill="white" fill-opacity="0.3"/>
<path d="M9.66666 8.5V9.5H10.6833V8.5H9.66666Z" fill="white" fill-opacity="0.3"/>
<path d="M18.8167 8.5V9.5H19.8333V8.5H18.8167Z" fill="white" fill-opacity="0.3"/>
<path d="M-0.5 8.5L-0.5 9.5H0.516667V8.5H-0.5Z" fill="white" fill-opacity="0.3"/>
<path d="M8.64999 8.5V9.5H9.66666V8.5H8.64999Z" fill="white" fill-opacity="0.3"/>
<path d="M17.8 8.5V9.5H18.8167V8.5H17.8Z" fill="white" fill-opacity="0.3"/>
<path d="M28.9833 8.5V9.5H30V8.5H28.9833Z" fill="white" fill-opacity="0.3"/>
<path d="M27.9667 8.5V9.5H28.9833V8.5H27.9667Z" fill="white" fill-opacity="0.3"/>
<path d="M26.95 8.5V9.5H27.9667V8.5H26.95Z" fill="white" fill-opacity="0.3"/>
<path d="M7.63333 5.5V6.5H8.65V5.5H7.63333Z" fill="white" fill-opacity="0.3"/>
<path d="M16.7833 5.5V6.5H17.8V5.5H16.7833Z" fill="white" fill-opacity="0.3"/>
<path d="M25.9333 5.5V6.5H26.95V5.5H25.9333Z" fill="white" fill-opacity="0.3"/>
<path d="M6.61667 5.5V6.5H7.63334V5.5H6.61667Z" fill="white" fill-opacity="0.3"/>
<path d="M15.7667 5.5V6.5H16.7833V5.5H15.7667Z" fill="white" fill-opacity="0.3"/>
<path d="M24.9167 5.5V6.5H25.9333V5.5H24.9167Z" fill="white" fill-opacity="0.3"/>
<path d="M5.60001 5.5V6.5H6.61667V5.5H5.60001Z" fill="white" fill-opacity="0.3"/>
<path d="M14.75 5.5V6.5H15.7667V5.5H14.75Z" fill="white" fill-opacity="0.3"/>
<path d="M23.9 5.5V6.5H24.9167V5.5H23.9Z" fill="white" fill-opacity="0.3"/>
<path d="M4.58334 5.5V6.5H5.60001V5.5H4.58334Z" fill="white" fill-opacity="0.3"/>
<path d="M13.7333 5.5V6.5H14.75V5.5H13.7333Z" fill="white" fill-opacity="0.3"/>
<path d="M22.8833 5.5V6.5H23.9V5.5H22.8833Z" fill="white" fill-opacity="0.3"/>
<path d="M3.56668 5.5V6.5H4.58335V5.5H3.56668Z" fill="white" fill-opacity="0.3"/>
<path d="M12.7167 5.5V6.5H13.7333V5.5H12.7167Z" fill="white" fill-opacity="0.3"/>
<path d="M21.8667 5.5V6.5H22.8833V5.5H21.8667Z" fill="white" fill-opacity="0.3"/>
<path d="M2.54999 5.5V6.5H3.56665V5.5H2.54999Z" fill="white" fill-opacity="0.3"/>
<path d="M11.7 5.5V6.5H12.7167V5.5H11.7Z" fill="white" fill-opacity="0.3"/>
<path d="M20.85 5.5V6.5H21.8667V5.5H20.85Z" fill="white" fill-opacity="0.3"/>
<path d="M1.53333 5.5V6.5H2.54999V5.5H1.53333Z" fill="white" fill-opacity="0.3"/>
<path d="M10.6833 5.5V6.5H11.7V5.5H10.6833Z" fill="white" fill-opacity="0.3"/>
<path d="M19.8333 5.5V6.5H20.85V5.5H19.8333Z" fill="white" fill-opacity="0.3"/>
<path d="M0.516663 5.5L0.516663 6.5H1.53333V5.5H0.516663Z" fill="white" fill-opacity="0.3"/>
<path d="M9.66666 5.5V6.5H10.6833V5.5H9.66666Z" fill="white" fill-opacity="0.3"/>
<path d="M18.8167 5.5V6.5H19.8333V5.5H18.8167Z" fill="white" fill-opacity="0.3"/>
<path d="M-0.5 5.5L-0.5 6.5H0.516667V5.5H-0.5Z" fill="white" fill-opacity="0.3"/>
<path d="M8.64999 5.5V6.5H9.66666V5.5H8.64999Z" fill="white" fill-opacity="0.3"/>
<path d="M17.8 5.5V6.5H18.8167V5.5H17.8Z" fill="white" fill-opacity="0.3"/>
<path d="M28.9833 5.5V6.5H30V5.5H28.9833Z" fill="white" fill-opacity="0.3"/>
<path d="M27.9667 5.5V6.5H28.9833V5.5H27.9667Z" fill="white" fill-opacity="0.3"/>
<path d="M26.95 5.5V6.5H27.9667V5.5H26.95Z" fill="white" fill-opacity="0.3"/>
<path d="M7.63333 2.5V3.5H8.65V2.5H7.63333Z" fill="white" fill-opacity="0.3"/>
<path d="M16.7833 2.5V3.5H17.8V2.5H16.7833Z" fill="white" fill-opacity="0.3"/>
<path d="M25.9333 2.5V3.5H26.95V2.5H25.9333Z" fill="white" fill-opacity="0.3"/>
<path d="M6.61667 2.5V3.5H7.63334V2.5H6.61667Z" fill="white" fill-opacity="0.3"/>
<path d="M15.7667 2.5V3.5H16.7833V2.5H15.7667Z" fill="white" fill-opacity="0.3"/>
<path d="M24.9167 2.5V3.5H25.9333V2.5H24.9167Z" fill="white" fill-opacity="0.3"/>
<path d="M5.60001 2.5V3.5H6.61667V2.5H5.60001Z" fill="white" fill-opacity="0.3"/>
<path d="M14.75 2.5V3.5H15.7667V2.5H14.75Z" fill="white" fill-opacity="0.3"/>
<path d="M23.9 2.5V3.5H24.9167V2.5H23.9Z" fill="white" fill-opacity="0.3"/>
<path d="M4.58334 2.5V3.5H5.60001V2.5H4.58334Z" fill="white" fill-opacity="0.3"/>
<path d="M13.7333 2.5V3.5H14.75V2.5H13.7333Z" fill="white" fill-opacity="0.3"/>
<path d="M22.8833 2.5V3.5H23.9V2.5H22.8833Z" fill="white" fill-opacity="0.3"/>
<path d="M3.56668 2.5V3.5H4.58335V2.5H3.56668Z" fill="white" fill-opacity="0.3"/>
<path d="M12.7167 2.5V3.5H13.7333V2.5H12.7167Z" fill="white" fill-opacity="0.3"/>
<path d="M21.8667 2.5V3.5H22.8833V2.5H21.8667Z" fill="white" fill-opacity="0.3"/>
<path d="M2.54999 2.5V3.5H3.56665V2.5H2.54999Z" fill="white" fill-opacity="0.3"/>
<path d="M11.7 2.5V3.5H12.7167V2.5H11.7Z" fill="white" fill-opacity="0.3"/>
<path d="M20.85 2.5V3.5H21.8667V2.5H20.85Z" fill="white" fill-opacity="0.3"/>
<path d="M1.53333 2.5V3.5H2.54999V2.5H1.53333Z" fill="white" fill-opacity="0.3"/>
<path d="M10.6833 2.5V3.5H11.7V2.5H10.6833Z" fill="white" fill-opacity="0.3"/>
<path d="M19.8333 2.5V3.5H20.85V2.5H19.8333Z" fill="white" fill-opacity="0.3"/>
<path d="M0.516663 2.5L0.516663 3.5H1.53333V2.5H0.516663Z" fill="white" fill-opacity="0.3"/>
<path d="M9.66666 2.5V3.5H10.6833V2.5H9.66666Z" fill="white" fill-opacity="0.3"/>
<path d="M18.8167 2.5V3.5H19.8333V2.5H18.8167Z" fill="white" fill-opacity="0.3"/>
<path d="M-0.5 2.5L-0.5 3.5H0.516667V2.5H-0.5Z" fill="white" fill-opacity="0.3"/>
<path d="M8.64999 2.5V3.5H9.66666V2.5H8.64999Z" fill="white" fill-opacity="0.3"/>
<path d="M17.8 2.5V3.5H18.8167V2.5H17.8Z" fill="white" fill-opacity="0.3"/>
<path d="M28.9833 2.5V3.5H30V2.5H28.9833Z" fill="white" fill-opacity="0.3"/>
<path d="M27.9667 2.5V3.5H28.9833V2.5H27.9667Z" fill="white" fill-opacity="0.3"/>
<path d="M26.95 2.5V3.5H27.9667V2.5H26.95Z" fill="white" fill-opacity="0.3"/>
<path d="M4 8H3V9H4V8Z" fill="white" fill-opacity="0.3"/>
<path d="M4 17H3V18H4V17Z" fill="white" fill-opacity="0.3"/>
<path d="M4 26H3V27H4V26Z" fill="white" fill-opacity="0.3"/>
<path d="M4 7H3V8H4V7Z" fill="white" fill-opacity="0.3"/>
<path d="M4 16H3V17H4V16Z" fill="white" fill-opacity="0.3"/>
<path d="M4 25H3V26H4V25Z" fill="white" fill-opacity="0.3"/>
<path d="M4 6H3V7H4V6Z" fill="white" fill-opacity="0.3"/>
<path d="M4 15H3V16H4V15Z" fill="white" fill-opacity="0.3"/>
<path d="M4 24H3V25H4V24Z" fill="white" fill-opacity="0.3"/>
<path d="M4 5H3V6H4V5Z" fill="white" fill-opacity="0.3"/>
<path d="M4 14H3V15H4V14Z" fill="white" fill-opacity="0.3"/>
<path d="M4 23H3V24H4V23Z" fill="white" fill-opacity="0.3"/>
<path d="M4 4H3V5H4V4Z" fill="white" fill-opacity="0.3"/>
<path d="M4 13H3V14H4V13Z" fill="white" fill-opacity="0.3"/>
<path d="M4 22H3V23H4V22Z" fill="white" fill-opacity="0.3"/>
<path d="M4 3H3V4H4V3Z" fill="white" fill-opacity="0.3"/>
<path d="M4 12H3V13H4V12Z" fill="white" fill-opacity="0.3"/>
<path d="M4 21H3V22H4V21Z" fill="white" fill-opacity="0.3"/>
<path d="M4 2H3V3H4V2Z" fill="white" fill-opacity="0.3"/>
<path d="M4 11H3V12H4V11Z" fill="white" fill-opacity="0.3"/>
<path d="M4 20H3V21H4V20Z" fill="white" fill-opacity="0.3"/>
<path d="M4 1H3V2H4V1Z" fill="white" fill-opacity="0.3"/>
<path d="M4 10H3V11H4V10Z" fill="white" fill-opacity="0.3"/>
<path d="M4 19H3V20H4V19Z" fill="white" fill-opacity="0.3"/>
<path d="M4 0H3V1H4V0Z" fill="white" fill-opacity="0.3"/>
<path d="M4 9H3V10H4V9Z" fill="white" fill-opacity="0.3"/>
<path d="M4 18H3V19H4V18Z" fill="white" fill-opacity="0.3"/>
<path d="M4 29H3V30H4V29Z" fill="white" fill-opacity="0.3"/>
<path d="M4 28H3V29H4V28Z" fill="white" fill-opacity="0.3"/>
<path d="M4 27H3V28H4V27Z" fill="white" fill-opacity="0.3"/>
<path d="M7 8H6V9H7V8Z" fill="white" fill-opacity="0.3"/>
<path d="M7 17H6V18H7V17Z" fill="white" fill-opacity="0.3"/>
<path d="M7 26H6V27H7V26Z" fill="white" fill-opacity="0.3"/>
<path d="M7 7H6V8H7V7Z" fill="white" fill-opacity="0.3"/>
<path d="M7 16H6V17H7V16Z" fill="white" fill-opacity="0.3"/>
<path d="M7 25H6V26H7V25Z" fill="white" fill-opacity="0.3"/>
<path d="M7 6H6V7H7V6Z" fill="white" fill-opacity="0.3"/>
<path d="M7 15H6V16H7V15Z" fill="white" fill-opacity="0.3"/>
<path d="M7 24H6V25H7V24Z" fill="white" fill-opacity="0.3"/>
<path d="M7 5H6V6H7V5Z" fill="white" fill-opacity="0.3"/>
<path d="M7 14H6V15H7V14Z" fill="white" fill-opacity="0.3"/>
<path d="M7 23H6V24H7V23Z" fill="white" fill-opacity="0.3"/>
<path d="M7 4H6V5H7V4Z" fill="white" fill-opacity="0.3"/>
<path d="M7 13H6V14H7V13Z" fill="white" fill-opacity="0.3"/>
<path d="M7 22H6V23H7V22Z" fill="white" fill-opacity="0.3"/>
<path d="M7 3H6V4H7V3Z" fill="white" fill-opacity="0.3"/>
<path d="M7 12H6V13H7V12Z" fill="white" fill-opacity="0.3"/>
<path d="M7 21H6V22H7V21Z" fill="white" fill-opacity="0.3"/>
<path d="M7 2H6V3H7V2Z" fill="white" fill-opacity="0.3"/>
<path d="M7 11H6V12H7V11Z" fill="white" fill-opacity="0.3"/>
<path d="M7 20H6V21H7V20Z" fill="white" fill-opacity="0.3"/>
<path d="M7 1H6V2H7V1Z" fill="white" fill-opacity="0.3"/>
<path d="M7 10H6V11H7V10Z" fill="white" fill-opacity="0.3"/>
<path d="M7 19H6V20H7V19Z" fill="white" fill-opacity="0.3"/>
<path d="M7 0H6V1H7V0Z" fill="white" fill-opacity="0.3"/>
<path d="M7 9H6V10H7V9Z" fill="white" fill-opacity="0.3"/>
<path d="M7 18H6V19H7V18Z" fill="white" fill-opacity="0.3"/>
<path d="M7 29H6V30H7V29Z" fill="white" fill-opacity="0.3"/>
<path d="M7 28H6V29H7V28Z" fill="white" fill-opacity="0.3"/>
<path d="M7 27H6V28H7V27Z" fill="white" fill-opacity="0.3"/>
<path d="M10 8H9V9H10V8Z" fill="white" fill-opacity="0.3"/>
<path d="M10 17H9V18H10V17Z" fill="white" fill-opacity="0.3"/>
<path d="M10 26H9V27H10V26Z" fill="white" fill-opacity="0.3"/>
<path d="M10 7H9V8H10V7Z" fill="white" fill-opacity="0.3"/>
<path d="M10 16H9V17H10V16Z" fill="white" fill-opacity="0.3"/>
<path d="M10 25H9V26H10V25Z" fill="white" fill-opacity="0.3"/>
<path d="M10 6H9V7H10V6Z" fill="white" fill-opacity="0.3"/>
<path d="M10 15H9V16H10V15Z" fill="white" fill-opacity="0.3"/>
<path d="M10 24H9V25H10V24Z" fill="white" fill-opacity="0.3"/>
<path d="M10 5H9V6H10V5Z" fill="white" fill-opacity="0.3"/>
<path d="M10 14H9V15H10V14Z" fill="white" fill-opacity="0.3"/>
<path d="M10 23H9V24H10V23Z" fill="white" fill-opacity="0.3"/>
<path d="M10 4H9V5H10V4Z" fill="white" fill-opacity="0.3"/>
<path d="M10 13H9V14H10V13Z" fill="white" fill-opacity="0.3"/>
<path d="M10 22H9V23H10V22Z" fill="white" fill-opacity="0.3"/>
<path d="M10 3H9V4H10V3Z" fill="white" fill-opacity="0.3"/>
<path d="M10 12H9V13H10V12Z" fill="white" fill-opacity="0.3"/>
<path d="M10 21H9V22H10V21Z" fill="white" fill-opacity="0.3"/>
<path d="M10 2H9V3H10V2Z" fill="white" fill-opacity="0.3"/>
<path d="M10 11H9V12H10V11Z" fill="white" fill-opacity="0.3"/>
<path d="M10 20H9V21H10V20Z" fill="white" fill-opacity="0.3"/>
<path d="M10 1H9V2H10V1Z" fill="white" fill-opacity="0.3"/>
<path d="M10 10H9V11H10V10Z" fill="white" fill-opacity="0.3"/>
<path d="M10 19H9V20H10V19Z" fill="white" fill-opacity="0.3"/>
<path d="M10 0H9V1H10V0Z" fill="white" fill-opacity="0.3"/>
<path d="M10 9H9V10H10V9Z" fill="white" fill-opacity="0.3"/>
<path d="M10 18H9V19H10V18Z" fill="white" fill-opacity="0.3"/>
<path d="M10 29H9V30H10V29Z" fill="white" fill-opacity="0.3"/>
<path d="M10 28H9V29H10V28Z" fill="white" fill-opacity="0.3"/>
<path d="M10 27H9V28H10V27Z" fill="white" fill-opacity="0.3"/>
<path d="M13 8H12V9H13V8Z" fill="white" fill-opacity="0.3"/>
<path d="M13 17H12V18H13V17Z" fill="white" fill-opacity="0.3"/>
<path d="M13 26H12V27H13V26Z" fill="white" fill-opacity="0.3"/>
<path d="M13 7H12V8H13V7Z" fill="white" fill-opacity="0.3"/>
<path d="M13 16H12V17H13V16Z" fill="white" fill-opacity="0.3"/>
<path d="M13 25H12V26H13V25Z" fill="white" fill-opacity="0.3"/>
<path d="M13 6H12V7H13V6Z" fill="white" fill-opacity="0.3"/>
<path d="M13 15H12V16H13V15Z" fill="white" fill-opacity="0.3"/>
<path d="M13 24H12V25H13V24Z" fill="white" fill-opacity="0.3"/>
<path d="M13 5H12V6H13V5Z" fill="white" fill-opacity="0.3"/>
<path d="M13 14H12V15H13V14Z" fill="white" fill-opacity="0.3"/>
<path d="M13 23H12V24H13V23Z" fill="white" fill-opacity="0.3"/>
<path d="M13 4H12V5H13V4Z" fill="white" fill-opacity="0.3"/>
<path d="M13 13H12V14H13V13Z" fill="white" fill-opacity="0.3"/>
<path d="M13 22H12V23H13V22Z" fill="white" fill-opacity="0.3"/>
<path d="M13 3H12V4H13V3Z" fill="white" fill-opacity="0.3"/>
<path d="M13 12H12V13H13V12Z" fill="white" fill-opacity="0.3"/>
<path d="M13 21H12V22H13V21Z" fill="white" fill-opacity="0.3"/>
<path d="M13 2H12V3H13V2Z" fill="white" fill-opacity="0.3"/>
<path d="M13 11H12V12H13V11Z" fill="white" fill-opacity="0.3"/>
<path d="M13 20H12V21H13V20Z" fill="white" fill-opacity="0.3"/>
<path d="M13 1H12V2H13V1Z" fill="white" fill-opacity="0.3"/>
<path d="M13 10H12V11H13V10Z" fill="white" fill-opacity="0.3"/>
<path d="M13 19H12V20H13V19Z" fill="white" fill-opacity="0.3"/>
<path d="M13 0H12V1H13V0Z" fill="white" fill-opacity="0.3"/>
<path d="M13 9H12V10H13V9Z" fill="white" fill-opacity="0.3"/>
<path d="M13 18H12V19H13V18Z" fill="white" fill-opacity="0.3"/>
<path d="M13 29H12V30H13V29Z" fill="white" fill-opacity="0.3"/>
<path d="M13 28H12V29H13V28Z" fill="white" fill-opacity="0.3"/>
<path d="M13 27H12V28H13V27Z" fill="white" fill-opacity="0.3"/>
<path d="M16 8H15V9H16V8Z" fill="white" fill-opacity="0.3"/>
<path d="M16 17H15V18H16V17Z" fill="white" fill-opacity="0.3"/>
<path d="M16 26H15V27H16V26Z" fill="white" fill-opacity="0.3"/>
<path d="M16 7H15V8H16V7Z" fill="white" fill-opacity="0.3"/>
<path d="M16 16H15V17H16V16Z" fill="white" fill-opacity="0.3"/>
<path d="M16 25H15V26H16V25Z" fill="white" fill-opacity="0.3"/>
<path d="M16 6H15V7H16V6Z" fill="white" fill-opacity="0.3"/>
<path d="M16 15H15V16H16V15Z" fill="white" fill-opacity="0.3"/>
<path d="M16 24H15V25H16V24Z" fill="white" fill-opacity="0.3"/>
<path d="M16 5H15V6H16V5Z" fill="white" fill-opacity="0.3"/>
<path d="M16 14H15V15H16V14Z" fill="white" fill-opacity="0.3"/>
<path d="M16 23H15V24H16V23Z" fill="white" fill-opacity="0.3"/>
<path d="M16 4H15V5H16V4Z" fill="white" fill-opacity="0.3"/>
<path d="M16 13H15V14H16V13Z" fill="white" fill-opacity="0.3"/>
<path d="M16 22H15V23H16V22Z" fill="white" fill-opacity="0.3"/>
<path d="M16 3H15V4H16V3Z" fill="white" fill-opacity="0.3"/>
<path d="M16 12H15V13H16V12Z" fill="white" fill-opacity="0.3"/>
<path d="M16 21H15V22H16V21Z" fill="white" fill-opacity="0.3"/>
<path d="M16 2H15V3H16V2Z" fill="white" fill-opacity="0.3"/>
<path d="M16 11H15V12H16V11Z" fill="white" fill-opacity="0.3"/>
<path d="M16 20H15V21H16V20Z" fill="white" fill-opacity="0.3"/>
<path d="M16 1H15V2H16V1Z" fill="white" fill-opacity="0.3"/>
<path d="M16 10H15V11H16V10Z" fill="white" fill-opacity="0.3"/>
<path d="M16 19H15V20H16V19Z" fill="white" fill-opacity="0.3"/>
<path d="M16 0H15V1H16V0Z" fill="white" fill-opacity="0.3"/>
<path d="M16 9H15V10H16V9Z" fill="white" fill-opacity="0.3"/>
<path d="M16 18H15V19H16V18Z" fill="white" fill-opacity="0.3"/>
<path d="M16 29H15V30H16V29Z" fill="white" fill-opacity="0.3"/>
<path d="M16 28H15V29H16V28Z" fill="white" fill-opacity="0.3"/>
<path d="M16 27H15V28H16V27Z" fill="white" fill-opacity="0.3"/>
<path d="M19 8H18V9H19V8Z" fill="white" fill-opacity="0.3"/>
<path d="M19 17H18V18H19V17Z" fill="white" fill-opacity="0.3"/>
<path d="M19 26H18V27H19V26Z" fill="white" fill-opacity="0.3"/>
<path d="M19 7H18V8H19V7Z" fill="white" fill-opacity="0.3"/>
<path d="M19 16H18V17H19V16Z" fill="white" fill-opacity="0.3"/>
<path d="M19 25H18V26H19V25Z" fill="white" fill-opacity="0.3"/>
<path d="M19 6H18V7H19V6Z" fill="white" fill-opacity="0.3"/>
<path d="M19 15H18V16H19V15Z" fill="white" fill-opacity="0.3"/>
<path d="M19 24H18V25H19V24Z" fill="white" fill-opacity="0.3"/>
<path d="M19 5H18V6H19V5Z" fill="white" fill-opacity="0.3"/>
<path d="M19 14H18V15H19V14Z" fill="white" fill-opacity="0.3"/>
<path d="M19 23H18V24H19V23Z" fill="white" fill-opacity="0.3"/>
<path d="M19 4H18V5H19V4Z" fill="white" fill-opacity="0.3"/>
<path d="M19 13H18V14H19V13Z" fill="white" fill-opacity="0.3"/>
<path d="M19 22H18V23H19V22Z" fill="white" fill-opacity="0.3"/>
<path d="M19 3H18V4H19V3Z" fill="white" fill-opacity="0.3"/>
<path d="M19 12H18V13H19V12Z" fill="white" fill-opacity="0.3"/>
<path d="M19 21H18V22H19V21Z" fill="white" fill-opacity="0.3"/>
<path d="M19 2H18V3H19V2Z" fill="white" fill-opacity="0.3"/>
<path d="M19 11H18V12H19V11Z" fill="white" fill-opacity="0.3"/>
<path d="M19 20H18V21H19V20Z" fill="white" fill-opacity="0.3"/>
<path d="M19 1H18V2H19V1Z" fill="white" fill-opacity="0.3"/>
<path d="M19 10H18V11H19V10Z" fill="white" fill-opacity="0.3"/>
<path d="M19 19H18V20H19V19Z" fill="white" fill-opacity="0.3"/>
<path d="M19 0H18V1H19V0Z" fill="white" fill-opacity="0.3"/>
<path d="M19 9H18V10H19V9Z" fill="white" fill-opacity="0.3"/>
<path d="M19 18H18V19H19V18Z" fill="white" fill-opacity="0.3"/>
<path d="M19 29H18V30H19V29Z" fill="white" fill-opacity="0.3"/>
<path d="M19 28H18V29H19V28Z" fill="white" fill-opacity="0.3"/>
<path d="M19 27H18V28H19V27Z" fill="white" fill-opacity="0.3"/>
<path d="M22 8H21V9H22V8Z" fill="white" fill-opacity="0.3"/>
<path d="M22 17H21V18H22V17Z" fill="white" fill-opacity="0.3"/>
<path d="M22 26H21V27H22V26Z" fill="white" fill-opacity="0.3"/>
<path d="M22 7H21V8H22V7Z" fill="white" fill-opacity="0.3"/>
<path d="M22 16H21V17H22V16Z" fill="white" fill-opacity="0.3"/>
<path d="M22 25H21V26H22V25Z" fill="white" fill-opacity="0.3"/>
<path d="M22 6H21V7H22V6Z" fill="white" fill-opacity="0.3"/>
<path d="M22 15H21V16H22V15Z" fill="white" fill-opacity="0.3"/>
<path d="M22 24H21V25H22V24Z" fill="white" fill-opacity="0.3"/>
<path d="M22 5H21V6H22V5Z" fill="white" fill-opacity="0.3"/>
<path d="M22 14H21V15H22V14Z" fill="white" fill-opacity="0.3"/>
<path d="M22 23H21V24H22V23Z" fill="white" fill-opacity="0.3"/>
<path d="M22 4H21V5H22V4Z" fill="white" fill-opacity="0.3"/>
<path d="M22 13H21V14H22V13Z" fill="white" fill-opacity="0.3"/>
<path d="M22 22H21V23H22V22Z" fill="white" fill-opacity="0.3"/>
<path d="M22 3H21V4H22V3Z" fill="white" fill-opacity="0.3"/>
<path d="M22 12H21V13H22V12Z" fill="white" fill-opacity="0.3"/>
<path d="M22 21H21V22H22V21Z" fill="white" fill-opacity="0.3"/>
<path d="M22 2H21V3H22V2Z" fill="white" fill-opacity="0.3"/>
<path d="M22 11H21V12H22V11Z" fill="white" fill-opacity="0.3"/>
<path d="M22 20H21V21H22V20Z" fill="white" fill-opacity="0.3"/>
<path d="M22 1H21V2H22V1Z" fill="white" fill-opacity="0.3"/>
<path d="M22 10H21V11H22V10Z" fill="white" fill-opacity="0.3"/>
<path d="M22 19H21V20H22V19Z" fill="white" fill-opacity="0.3"/>
<path d="M22 0H21V1H22V0Z" fill="white" fill-opacity="0.3"/>
<path d="M22 9H21V10H22V9Z" fill="white" fill-opacity="0.3"/>
<path d="M22 18H21V19H22V18Z" fill="white" fill-opacity="0.3"/>
<path d="M22 29H21V30H22V29Z" fill="white" fill-opacity="0.3"/>
<path d="M22 28H21V29H22V28Z" fill="white" fill-opacity="0.3"/>
<path d="M22 27H21V28H22V27Z" fill="white" fill-opacity="0.3"/>
<path d="M25 8H24V9H25V8Z" fill="white" fill-opacity="0.3"/>
<path d="M25 17H24V18H25V17Z" fill="white" fill-opacity="0.3"/>
<path d="M25 26H24V27H25V26Z" fill="white" fill-opacity="0.3"/>
<path d="M25 7H24V8H25V7Z" fill="white" fill-opacity="0.3"/>
<path d="M25 16H24V17H25V16Z" fill="white" fill-opacity="0.3"/>
<path d="M25 25H24V26H25V25Z" fill="white" fill-opacity="0.3"/>
<path d="M25 6H24V7H25V6Z" fill="white" fill-opacity="0.3"/>
<path d="M25 15H24V16H25V15Z" fill="white" fill-opacity="0.3"/>
<path d="M25 24H24V25H25V24Z" fill="white" fill-opacity="0.3"/>
<path d="M25 5H24V6H25V5Z" fill="white" fill-opacity="0.3"/>
<path d="M25 14H24V15H25V14Z" fill="white" fill-opacity="0.3"/>
<path d="M25 23H24V24H25V23Z" fill="white" fill-opacity="0.3"/>
<path d="M25 4H24V5H25V4Z" fill="white" fill-opacity="0.3"/>
<path d="M25 13H24V14H25V13Z" fill="white" fill-opacity="0.3"/>
<path d="M25 22H24V23H25V22Z" fill="white" fill-opacity="0.3"/>
<path d="M25 3H24V4H25V3Z" fill="white" fill-opacity="0.3"/>
<path d="M25 12H24V13H25V12Z" fill="white" fill-opacity="0.3"/>
<path d="M25 21H24V22H25V21Z" fill="white" fill-opacity="0.3"/>
<path d="M25 2H24V3H25V2Z" fill="white" fill-opacity="0.3"/>
<path d="M25 11H24V12H25V11Z" fill="white" fill-opacity="0.3"/>
<path d="M25 20H24V21H25V20Z" fill="white" fill-opacity="0.3"/>
<path d="M25 1H24V2H25V1Z" fill="white" fill-opacity="0.3"/>
<path d="M25 10H24V11H25V10Z" fill="white" fill-opacity="0.3"/>
<path d="M25 19H24V20H25V19Z" fill="white" fill-opacity="0.3"/>
<path d="M25 0H24V1H25V0Z" fill="white" fill-opacity="0.3"/>
<path d="M25 9H24V10H25V9Z" fill="white" fill-opacity="0.3"/>
<path d="M25 18H24V19H25V18Z" fill="white" fill-opacity="0.3"/>
<path d="M25 29H24V30H25V29Z" fill="white" fill-opacity="0.3"/>
<path d="M25 28H24V29H25V28Z" fill="white" fill-opacity="0.3"/>
<path d="M25 27H24V28H25V27Z" fill="white" fill-opacity="0.3"/>
<path d="M28 8H27V9H28V8Z" fill="white" fill-opacity="0.3"/>
<path d="M28 17H27V18H28V17Z" fill="white" fill-opacity="0.3"/>
<path d="M28 26H27V27H28V26Z" fill="white" fill-opacity="0.3"/>
<path d="M28 7H27V8H28V7Z" fill="white" fill-opacity="0.3"/>
<path d="M28 16H27V17H28V16Z" fill="white" fill-opacity="0.3"/>
<path d="M28 25H27V26H28V25Z" fill="white" fill-opacity="0.3"/>
<path d="M28 6H27V7H28V6Z" fill="white" fill-opacity="0.3"/>
<path d="M28 15H27V16H28V15Z" fill="white" fill-opacity="0.3"/>
<path d="M28 24H27V25H28V24Z" fill="white" fill-opacity="0.3"/>
<path d="M28 5H27V6H28V5Z" fill="white" fill-opacity="0.3"/>
<path d="M28 14H27V15H28V14Z" fill="white" fill-opacity="0.3"/>
<path d="M28 23H27V24H28V23Z" fill="white" fill-opacity="0.3"/>
<path d="M28 4H27V5H28V4Z" fill="white" fill-opacity="0.3"/>
<path d="M28 13H27V14H28V13Z" fill="white" fill-opacity="0.3"/>
<path d="M28 22H27V23H28V22Z" fill="white" fill-opacity="0.3"/>
<path d="M28 3H27V4H28V3Z" fill="white" fill-opacity="0.3"/>
<path d="M28 12H27V13H28V12Z" fill="white" fill-opacity="0.3"/>
<path d="M28 21H27V22H28V21Z" fill="white" fill-opacity="0.3"/>
<path d="M28 2H27V3H28V2Z" fill="white" fill-opacity="0.3"/>
<path d="M28 11H27V12H28V11Z" fill="white" fill-opacity="0.3"/>
<path d="M28 20H27V21H28V20Z" fill="white" fill-opacity="0.3"/>
<path d="M28 1H27V2H28V1Z" fill="white" fill-opacity="0.3"/>
<path d="M28 10H27V11H28V10Z" fill="white" fill-opacity="0.3"/>
<path d="M28 19H27V20H28V19Z" fill="white" fill-opacity="0.3"/>
<path d="M28 0H27V1H28V0Z" fill="white" fill-opacity="0.3"/>
<path d="M28 9H27V10H28V9Z" fill="white" fill-opacity="0.3"/>
<path d="M28 18H27V19H28V18Z" fill="white" fill-opacity="0.3"/>
<path d="M28 29H27V30H28V29Z" fill="white" fill-opacity="0.3"/>
<path d="M28 28H27V29H28V28Z" fill="white" fill-opacity="0.3"/>
<path d="M28 27H27V28H28V27Z" fill="white" fill-opacity="0.3"/>
<path d="M14 12H13V13H14V12Z" fill="black"/>
<path d="M15 12H14V13H15V12Z" fill="#EFB15E"/>
<path d="M14 13H13V14H14V13Z" fill="black"/>
<path d="M15 13H14V14H15V13Z" fill="#D69743"/>
<path d="M19 12H18V13H19V12Z" fill="black"/>
<path d="M20 12H19V13H20V12Z" fill="#EFB15E"/>
<path d="M19 13H18V14H19V13Z" fill="black"/>
<path d="M20 13H19V14H20V13Z" fill="#EFB15E"/>
<path d="M16 15H15V16H16V15Z" fill="#EFB15E"/>
<path d="M17 15H16V16H17V15Z" fill="#EFB15E"/>
<path d="M16 13H15V14H16V13Z" fill="#D69743"/>
<path d="M17 13H16V14H17V13Z" fill="#D69743"/>
<path d="M18 13H17V14H18V13Z" fill="white" fill-opacity="0.9"/>
<path d="M10 12H9V13H10V12Z" fill="#D69743"/>
<path d="M10 13H9V14H10V13Z" fill="#D69743"/>
<path d="M12 16H11V17H12V16Z" fill="#D69743"/>
<path d="M13 16H12V17H13V16Z" fill="#D69743"/>
<path d="M14 16H13V17H14V16Z" fill="#D69743"/>
<path d="M15 16H14V17H15V16Z" fill="#D69743"/>
<path d="M16 16H15V17H16V16Z" fill="#D69743"/>
<path d="M17 16H16V17H17V16Z" fill="#D69743"/>
<path d="M18 16H17V17H18V16Z" fill="#D69743"/>
<path d="M14 18H13V19H14V18Z" fill="#EFB15E"/>
<path d="M18 18H17V19H18V18Z" fill="#EFB15E"/>
<path d="M11 17H10V18H11V17Z" fill="#EFB15E"/>
<path d="M10 18H9V19H10V18Z" fill="#EFB15E"/>
<path d="M10 19H9V20H10V19Z" fill="#EFB15E"/>
<path d="M11 19H10V20H11V19Z" fill="#D69743"/>
<path d="M11 18H10V19H11V18Z" fill="#D69743"/>
<path d="M12 9H11V10H12V9Z" fill="#EFB15E"/>
<path d="M13 9H12V10H13V9Z" fill="#EFB15E"/>
<path d="M14 9H13V10H14V9Z" fill="#EFB15E"/>
<path d="M15 9H14V10H15V9Z" fill="#EFB15E"/>
<path d="M16 9H15V10H16V9Z" fill="#EFB15E"/>
<path d="M17 9H16V10H17V9Z" fill="#EFB15E"/>
<path d="M18 9H17V10H18V9Z" fill="#EFB15E"/>
<path d="M19 9H18V10H19V9Z" fill="#EFB15E"/>
<path d="M11 10H10V11H11V10Z" fill="#EFB15E"/>
<path d="M12 10H11V11H12V10Z" fill="#EFB15E"/>
<path d="M13 10H12V11H13V10Z" fill="#EFB15E"/>
<path d="M14 10H13V11H14V10Z" fill="#EFB15E"/>
<path d="M15 10H14V11H15V10Z" fill="#EFB15E"/>
<path d="M16 10H15V11H16V10Z" fill="#EFB15E"/>
<path d="M17 10H16V11H17V10Z" fill="#EFB15E"/>
<path d="M18 10H17V11H18V10Z" fill="#EFB15E"/>
<path d="M19 10H18V11H19V10Z" fill="#EFB15E"/>
<path d="M20 10H19V11H20V10Z" fill="#EFB15E"/>
<path d="M11 11H10V12H11V11Z" fill="#EFB15E"/>
<path d="M12 11H11V12H12V11Z" fill="#EFB15E"/>
<path d="M13 11H12V12H13V11Z" fill="#EFB15E"/>
<path d="M14 11H13V12H14V11Z" fill="#EFB15E"/>
<path d="M15 11H14V12H15V11Z" fill="#EFB15E"/>
<path d="M16 11H15V12H16V11Z" fill="#EFB15E"/>
<path d="M17 11H16V12H17V11Z" fill="#EFB15E"/>
<path d="M18 11H17V12H18V11Z" fill="#EFB15E"/>
<path d="M19 11H18V12H19V11Z" fill="#EFB15E"/>
<path d="M20 11H19V12H20V11Z" fill="#EFB15E"/>
<path d="M11 12H10V13H11V12Z" fill="#EFB15E"/>
<path d="M12 12H11V13H12V12Z" fill="#EFB15E"/>
<path d="M13 12H12V13H13V12Z" fill="white" fill-opacity="0.9"/>
<path d="M16 12H15V13H16V12Z" fill="#EFB15E"/>
<path d="M17 12H16V13H17V12Z" fill="#EFB15E"/>
<path d="M18 12H17V13H18V12Z" fill="white" fill-opacity="0.9"/>
<path d="M11 13H10V14H11V13Z" fill="#EFB15E"/>
<path d="M12 13H11V14H12V13Z" fill="#EFB15E"/>
<path d="M13 13H12V14H13V13Z" fill="white" fill-opacity="0.9"/>
<path d="M11 14H10V15H11V14Z" fill="#EFB15E"/>
<path d="M12 14H11V15H12V14Z" fill="#EFB15E"/>
<path d="M14 14H13V15H14V14Z" fill="#EFB15E"/>
<path d="M15 14H14V15H15V14Z" fill="#EFB15E"/>
<path d="M16 14H15V15H16V14Z" fill="#EFB15E"/>
<path d="M17 14H16V15H17V14Z" fill="#EFB15E"/>
<path d="M18 14H17V15H18V14Z" fill="#EFB15E"/>
<path d="M19 14H18V15H19V14Z" fill="#EFB15E"/>
<path d="M20 14H19V15H20V14Z" fill="#EFB15E"/>
<path d="M12 15H11V16H12V15Z" fill="#EFB15E"/>
<path d="M13 15H12V16H13V15Z" fill="#EFB15E"/>
<path d="M14 15H13V16H14V15Z" fill="#EFB15E"/>
<path d="M15 15H14V16H15V15Z" fill="#EFB15E"/>
<path d="M18 15H17V16H18V15Z" fill="#EFB15E"/>
<path d="M19 15H18V16H19V15Z" fill="#EFB15E"/>
<path d="M13 14H12V15H13V14Z" fill="#EFB15E"/>
<path d="M12 17H11V18H12V17Z" fill="#EFB15E"/>
<path d="M13 17H12V18H13V17Z" fill="#EFB15E"/>
<path d="M14 17H13V18H14V17Z" fill="#EFB15E"/>
<path d="M15 17H14V18H15V17Z" fill="#EFB15E"/>
<path d="M16 17H15V18H16V17Z" fill="#EFB15E"/>
<path d="M17 17H16V18H17V17Z" fill="#EFB15E"/>
<path d="M18 17H17V18H18V17Z" fill="#EFB15E"/>
<path d="M12 18H11V19H12V18Z" fill="#EFB15E"/>
<path d="M13 18H12V19H13V18Z" fill="#D69743"/>
<path d="M15 18H14V19H15V18Z" fill="#EFB15E"/>
<path d="M16 18H15V19H16V18Z" fill="#EFB15E"/>
<path d="M17 18H16V19H17V18Z" fill="#D69743"/>
<path d="M12 19H11V20H12V19Z" fill="#EFB15E"/>
<path d="M13 19H12V20H13V19Z" fill="#EFB15E"/>
<path d="M14 19H13V20H14V19Z" fill="#EFB15E"/>
<path d="M15 19H14V20H15V19Z" fill="#EFB15E"/>
<path d="M16 19H15V20H16V19Z" fill="#EFB15E"/>
<path d="M17 19H16V20H17V19Z" fill="#EFB15E"/>
<path d="M18 19H17V20H18V19Z" fill="#EFB15E"/>
<path d="M19 17H18V18H19V17Z" fill="#EFB15E"/>
<path d="M19 18H18V19H19V18Z" fill="#D69743"/>
<path d="M20 18H19V19H20V18Z" fill="#EFB15E"/>
<path d="M19 19H18V20H19V19Z" fill="#D69743"/>
<path d="M20 19H19V20H20V19Z" fill="#EFB15E"/>
<path d="M12 22H11V23H12V22Z" fill="#EFB15E"/>
<path d="M13 22H12V23H13V22Z" fill="#EFB15E"/>
<path d="M17 22H16V23H17V22Z" fill="#EFB15E"/>
<path d="M18 22H17V23H18V22Z" fill="#EFB15E"/>
<path d="M12 20H11V21H12V20Z" fill="#EFB15E"/>
<path d="M13 20H12V21H13V20Z" fill="#EFB15E"/>
<path d="M14 20H13V21H14V20Z" fill="#EFB15E"/>
<path d="M15 20H14V21H15V20Z" fill="#EFB15E"/>
<path d="M16 20H15V21H16V20Z" fill="#EFB15E"/>
<path d="M17 20H16V21H17V20Z" fill="#EFB15E"/>
<path d="M18 20H17V21H18V20Z" fill="#EFB15E"/>
<path d="M12 21H11V22H12V21Z" fill="#EFB15E"/>
<path d="M13 21H12V22H13V21Z" fill="#EFB15E"/>
<path d="M14 21H13V22H14V21Z" fill="#EFB15E"/>
<path d="M16 21H15V22H16V21Z" fill="#EFB15E"/>
<path d="M17 21H16V22H17V21Z" fill="#EFB15E"/>
<path d="M18 21H17V22H18V21Z" fill="#EFB15E"/>
<rect x="11" y="8" width="8" height="1" fill="white" fill-opacity="0.9"/>
<rect x="19" y="9" width="1" height="1" fill="white" fill-opacity="0.9"/>
<rect x="10" y="9" width="1" height="1" fill="white" fill-opacity="0.9"/>
<rect x="20" y="10" width="1" height="5" fill="white" fill-opacity="0.9"/>
<rect x="19" y="15" width="1" height="1" fill="white" fill-opacity="0.9"/>
<rect x="18" y="16" width="1" height="1" fill="white" fill-opacity="0.9"/>
<rect x="19" y="17" width="1" height="1" fill="white" fill-opacity="0.9"/>
<rect x="9" y="17" width="1" height="1" fill="white" fill-opacity="0.9"/>
<rect x="9" y="14" width="1" height="1" fill="white" fill-opacity="0.9"/>
<rect x="9" y="10" width="1" height="2" fill="white" fill-opacity="0.9"/>
<rect x="10" y="15" width="1" height="2" fill="white" fill-opacity="0.9"/>
<rect x="8" y="12" width="1" height="2" fill="white" fill-opacity="0.9"/>
<rect x="14" y="21" width="1" height="1" fill="white" fill-opacity="0.9"/>
<rect x="13" y="22" width="1" height="1" fill="white" fill-opacity="0.9"/>
<rect x="15" y="22" width="1" height="1" fill="white" fill-opacity="0.9"/>
<rect x="11" y="23" width="2" height="1" fill="white" fill-opacity="0.9"/>
<rect x="16" y="23" width="2" height="1" fill="white" fill-opacity="0.9"/>
<rect x="20" y="18" width="1" height="2" fill="white" fill-opacity="0.9"/>
<rect x="8" y="18" width="1" height="2" fill="white" fill-opacity="0.9"/>
<rect x="18" y="20" width="2" height="1" fill="white" fill-opacity="0.9"/>
<rect x="9" y="20" width="2" height="1" fill="white" fill-opacity="0.9"/>
<rect x="18" y="21" width="1" height="2" fill="white" fill-opacity="0.9"/>
<rect x="10" y="21" width="1" height="2" fill="white" fill-opacity="0.9"/>
</g>
<defs>
<linearGradient id="paint0_linear_3826_2485" x1="15" y1="0" x2="15" y2="30" gradientUnits="userSpaceOnUse">
<stop stop-color="#1AB2EF"/>
<stop offset="1" stop-color="#176BE3"/>
</linearGradient>
<clipPath id="clip0_3826_2485">
<rect width="30" height="30" rx="5" fill="white"/>
</clipPath>
</defs>
</svg>
