<svg width="30" height="30" viewBox="0 0 30 30" fill="none" xmlns="http://www.w3.org/2000/svg">
<rect width="30" height="30" rx="5" fill="url(#paint0_linear_3826_1724)"/>
<path d="M14 12H13V13H14V12Z" fill="black"/>
<path d="M15 12H14V13H15V12Z" fill="#EFB15E" fill-opacity="0.7"/>
<path d="M14 13H13V14H14V13Z" fill="black"/>
<path d="M15 13H14V14H15V13Z" fill="#D69743" fill-opacity="0.7"/>
<path d="M19 12H18V13H19V12Z" fill="black"/>
<path d="M20 12H19V13H20V12Z" fill="#EFB15E" fill-opacity="0.7"/>
<path d="M19 13H18V14H19V13Z" fill="black"/>
<path d="M20 13H19V14H20V13Z" fill="#EFB15E" fill-opacity="0.7"/>
<path d="M16 15H15V16H16V15Z" fill="#EFB15E" fill-opacity="0.7"/>
<path d="M17 15H16V16H17V15Z" fill="#EFB15E" fill-opacity="0.7"/>
<path d="M16 13H15V14H16V13Z" fill="#D69743" fill-opacity="0.7"/>
<path d="M17 13H16V14H17V13Z" fill="#D69743" fill-opacity="0.7"/>
<path d="M18 13H17V14H18V13Z" fill="white" fill-opacity="0.9"/>
<path d="M10 12H9V13H10V12Z" fill="#D69743" fill-opacity="0.7"/>
<path d="M10 13H9V14H10V13Z" fill="#D69743" fill-opacity="0.7"/>
<path d="M12 16H11V17H12V16Z" fill="#D69743" fill-opacity="0.7"/>
<path d="M13 16H12V17H13V16Z" fill="#D69743" fill-opacity="0.7"/>
<path d="M14 16H13V17H14V16Z" fill="#D69743" fill-opacity="0.7"/>
<path d="M15 16H14V17H15V16Z" fill="#D69743" fill-opacity="0.7"/>
<path d="M16 16H15V17H16V16Z" fill="#D69743" fill-opacity="0.7"/>
<path d="M17 16H16V17H17V16Z" fill="#D69743" fill-opacity="0.7"/>
<path d="M18 16H17V17H18V16Z" fill="#D69743" fill-opacity="0.7"/>
<path d="M14 18H13V19H14V18Z" fill="#EFB15E" fill-opacity="0.7"/>
<path d="M18 18H17V19H18V18Z" fill="#EFB15E" fill-opacity="0.7"/>
<path d="M11 17H10V18H11V17Z" fill="#EFB15E" fill-opacity="0.7"/>
<path d="M10 18H9V19H10V18Z" fill="#EFB15E" fill-opacity="0.7"/>
<path d="M10 19H9V20H10V19Z" fill="#EFB15E" fill-opacity="0.7"/>
<path d="M11 19H10V20H11V19Z" fill="#D69743" fill-opacity="0.7"/>
<path d="M11 18H10V19H11V18Z" fill="#D69743" fill-opacity="0.7"/>
<path d="M12 9H11V10H12V9Z" fill="#EFB15E" fill-opacity="0.7"/>
<path d="M13 9H12V10H13V9Z" fill="#EFB15E" fill-opacity="0.7"/>
<path d="M14 9H13V10H14V9Z" fill="#EFB15E" fill-opacity="0.7"/>
<path d="M15 9H14V10H15V9Z" fill="#EFB15E" fill-opacity="0.7"/>
<path d="M16 9H15V10H16V9Z" fill="#EFB15E" fill-opacity="0.7"/>
<path d="M17 9H16V10H17V9Z" fill="#EFB15E" fill-opacity="0.7"/>
<path d="M18 9H17V10H18V9Z" fill="#EFB15E" fill-opacity="0.7"/>
<path d="M19 9H18V10H19V9Z" fill="#EFB15E" fill-opacity="0.7"/>
<path d="M11 10H10V11H11V10Z" fill="#EFB15E" fill-opacity="0.7"/>
<path d="M12 10H11V11H12V10Z" fill="#EFB15E" fill-opacity="0.7"/>
<path d="M13 10H12V11H13V10Z" fill="#EFB15E" fill-opacity="0.7"/>
<path d="M14 10H13V11H14V10Z" fill="#EFB15E" fill-opacity="0.7"/>
<path d="M15 10H14V11H15V10Z" fill="#EFB15E" fill-opacity="0.7"/>
<path d="M16 10H15V11H16V10Z" fill="#EFB15E" fill-opacity="0.7"/>
<path d="M17 10H16V11H17V10Z" fill="#EFB15E" fill-opacity="0.7"/>
<path d="M18 10H17V11H18V10Z" fill="#EFB15E" fill-opacity="0.7"/>
<path d="M19 10H18V11H19V10Z" fill="#EFB15E" fill-opacity="0.7"/>
<path d="M20 10H19V11H20V10Z" fill="#EFB15E" fill-opacity="0.7"/>
<path d="M11 11H10V12H11V11Z" fill="#EFB15E" fill-opacity="0.7"/>
<path d="M12 11H11V12H12V11Z" fill="#EFB15E" fill-opacity="0.7"/>
<path d="M13 11H12V12H13V11Z" fill="#EFB15E" fill-opacity="0.7"/>
<path d="M14 11H13V12H14V11Z" fill="#EFB15E" fill-opacity="0.7"/>
<path d="M15 11H14V12H15V11Z" fill="#EFB15E" fill-opacity="0.7"/>
<path d="M16 11H15V12H16V11Z" fill="#EFB15E" fill-opacity="0.7"/>
<path d="M17 11H16V12H17V11Z" fill="#EFB15E" fill-opacity="0.7"/>
<path d="M18 11H17V12H18V11Z" fill="#EFB15E" fill-opacity="0.7"/>
<path d="M19 11H18V12H19V11Z" fill="#EFB15E" fill-opacity="0.7"/>
<path d="M20 11H19V12H20V11Z" fill="#EFB15E" fill-opacity="0.7"/>
<path d="M11 12H10V13H11V12Z" fill="#EFB15E" fill-opacity="0.7"/>
<path d="M12 12H11V13H12V12Z" fill="#EFB15E" fill-opacity="0.7"/>
<path d="M13 12H12V13H13V12Z" fill="white" fill-opacity="0.9"/>
<path d="M16 12H15V13H16V12Z" fill="#EFB15E" fill-opacity="0.7"/>
<path d="M17 12H16V13H17V12Z" fill="#EFB15E" fill-opacity="0.7"/>
<path d="M18 12H17V13H18V12Z" fill="white" fill-opacity="0.9"/>
<path d="M11 13H10V14H11V13Z" fill="#EFB15E" fill-opacity="0.7"/>
<path d="M12 13H11V14H12V13Z" fill="#EFB15E" fill-opacity="0.7"/>
<path d="M13 13H12V14H13V13Z" fill="white" fill-opacity="0.9"/>
<path d="M11 14H10V15H11V14Z" fill="#EFB15E" fill-opacity="0.7"/>
<path d="M12 14H11V15H12V14Z" fill="#EFB15E" fill-opacity="0.7"/>
<path d="M14 14H13V15H14V14Z" fill="#EFB15E" fill-opacity="0.7"/>
<path d="M15 14H14V15H15V14Z" fill="#EFB15E" fill-opacity="0.7"/>
<path d="M16 14H15V15H16V14Z" fill="#EFB15E" fill-opacity="0.7"/>
<path d="M17 14H16V15H17V14Z" fill="#EFB15E" fill-opacity="0.7"/>
<path d="M18 14H17V15H18V14Z" fill="#EFB15E" fill-opacity="0.7"/>
<path d="M19 14H18V15H19V14Z" fill="#EFB15E" fill-opacity="0.7"/>
<path d="M20 14H19V15H20V14Z" fill="#EFB15E" fill-opacity="0.7"/>
<path d="M12 15H11V16H12V15Z" fill="#EFB15E" fill-opacity="0.7"/>
<path d="M13 15H12V16H13V15Z" fill="#EFB15E" fill-opacity="0.7"/>
<path d="M14 15H13V16H14V15Z" fill="#EFB15E" fill-opacity="0.7"/>
<path d="M15 15H14V16H15V15Z" fill="#EFB15E" fill-opacity="0.7"/>
<path d="M18 15H17V16H18V15Z" fill="#EFB15E" fill-opacity="0.7"/>
<path d="M19 15H18V16H19V15Z" fill="#EFB15E" fill-opacity="0.7"/>
<path d="M13 14H12V15H13V14Z" fill="#EFB15E" fill-opacity="0.7"/>
<path d="M12 17H11V18H12V17Z" fill="#EFB15E" fill-opacity="0.7"/>
<path d="M13 17H12V18H13V17Z" fill="#EFB15E" fill-opacity="0.7"/>
<path d="M14 17H13V18H14V17Z" fill="#EFB15E" fill-opacity="0.7"/>
<path d="M15 17H14V18H15V17Z" fill="#EFB15E" fill-opacity="0.7"/>
<path d="M16 17H15V18H16V17Z" fill="#EFB15E" fill-opacity="0.7"/>
<path d="M17 17H16V18H17V17Z" fill="#EFB15E" fill-opacity="0.7"/>
<path d="M18 17H17V18H18V17Z" fill="#EFB15E" fill-opacity="0.7"/>
<path d="M12 18H11V19H12V18Z" fill="#EFB15E" fill-opacity="0.7"/>
<path d="M13 18H12V19H13V18Z" fill="#D69743" fill-opacity="0.7"/>
<path d="M15 18H14V19H15V18Z" fill="#EFB15E" fill-opacity="0.7"/>
<path d="M16 18H15V19H16V18Z" fill="#EFB15E" fill-opacity="0.7"/>
<path d="M17 18H16V19H17V18Z" fill="#D69743" fill-opacity="0.7"/>
<path d="M12 19H11V20H12V19Z" fill="#EFB15E" fill-opacity="0.7"/>
<path d="M13 19H12V20H13V19Z" fill="#EFB15E" fill-opacity="0.7"/>
<path d="M14 19H13V20H14V19Z" fill="#EFB15E" fill-opacity="0.7"/>
<path d="M15 19H14V20H15V19Z" fill="#EFB15E" fill-opacity="0.7"/>
<path d="M16 19H15V20H16V19Z" fill="#EFB15E" fill-opacity="0.7"/>
<path d="M17 19H16V20H17V19Z" fill="#EFB15E" fill-opacity="0.7"/>
<path d="M18 19H17V20H18V19Z" fill="#EFB15E" fill-opacity="0.7"/>
<path d="M19 17H18V18H19V17Z" fill="#EFB15E" fill-opacity="0.7"/>
<path d="M19 18H18V19H19V18Z" fill="#D69743" fill-opacity="0.7"/>
<path d="M20 18H19V19H20V18Z" fill="#EFB15E" fill-opacity="0.7"/>
<path d="M19 19H18V20H19V19Z" fill="#D69743" fill-opacity="0.7"/>
<path d="M20 19H19V20H20V19Z" fill="#EFB15E" fill-opacity="0.7"/>
<path d="M12 22H11V23H12V22Z" fill="#EFB15E" fill-opacity="0.7"/>
<path d="M13 22H12V23H13V22Z" fill="#EFB15E" fill-opacity="0.7"/>
<path d="M17 22H16V23H17V22Z" fill="#EFB15E" fill-opacity="0.7"/>
<path d="M18 22H17V23H18V22Z" fill="#EFB15E" fill-opacity="0.7"/>
<path d="M12 20H11V21H12V20Z" fill="#EFB15E" fill-opacity="0.7"/>
<path d="M13 20H12V21H13V20Z" fill="#EFB15E" fill-opacity="0.7"/>
<path d="M14 20H13V21H14V20Z" fill="#EFB15E" fill-opacity="0.7"/>
<path d="M15 20H14V21H15V20Z" fill="#EFB15E" fill-opacity="0.7"/>
<path d="M16 20H15V21H16V20Z" fill="#EFB15E" fill-opacity="0.7"/>
<path d="M17 20H16V21H17V20Z" fill="#EFB15E" fill-opacity="0.7"/>
<path d="M18 20H17V21H18V20Z" fill="#EFB15E" fill-opacity="0.7"/>
<path d="M12 21H11V22H12V21Z" fill="#EFB15E" fill-opacity="0.7"/>
<path d="M13 21H12V22H13V21Z" fill="#EFB15E" fill-opacity="0.7"/>
<path d="M14 21H13V22H14V21Z" fill="#EFB15E" fill-opacity="0.7"/>
<path d="M16 21H15V22H16V21Z" fill="#EFB15E" fill-opacity="0.7"/>
<path d="M17 21H16V22H17V21Z" fill="#EFB15E" fill-opacity="0.7"/>
<path d="M18 21H17V22H18V21Z" fill="#EFB15E" fill-opacity="0.7"/>
<rect x="11" y="8" width="8" height="1" fill="white" fill-opacity="0.9"/>
<rect x="19" y="9" width="1" height="1" fill="white" fill-opacity="0.9"/>
<rect x="10" y="9" width="1" height="1" fill="white" fill-opacity="0.9"/>
<rect x="20" y="10" width="1" height="5" fill="white" fill-opacity="0.9"/>
<rect x="19" y="15" width="1" height="1" fill="white" fill-opacity="0.9"/>
<rect x="18" y="16" width="1" height="1" fill="white" fill-opacity="0.9"/>
<rect x="19" y="17" width="1" height="1" fill="white" fill-opacity="0.9"/>
<rect x="9" y="17" width="1" height="1" fill="white" fill-opacity="0.9"/>
<rect x="9" y="14" width="1" height="1" fill="white" fill-opacity="0.9"/>
<rect x="9" y="10" width="1" height="2" fill="white" fill-opacity="0.9"/>
<rect x="10" y="15" width="1" height="2" fill="white" fill-opacity="0.9"/>
<rect x="8" y="12" width="1" height="2" fill="white" fill-opacity="0.9"/>
<rect x="14" y="21" width="1" height="1" fill="white" fill-opacity="0.9"/>
<rect x="13" y="22" width="1" height="1" fill="white" fill-opacity="0.9"/>
<rect x="15" y="22" width="1" height="1" fill="white" fill-opacity="0.9"/>
<rect x="11" y="23" width="2" height="1" fill="white" fill-opacity="0.9"/>
<rect x="16" y="23" width="2" height="1" fill="white" fill-opacity="0.9"/>
<rect x="20" y="18" width="1" height="2" fill="white" fill-opacity="0.9"/>
<rect x="8" y="18" width="1" height="2" fill="white" fill-opacity="0.9"/>
<rect x="18" y="20" width="2" height="1" fill="white" fill-opacity="0.9"/>
<rect x="9" y="20" width="2" height="1" fill="white" fill-opacity="0.9"/>
<rect x="18" y="21" width="1" height="2" fill="white" fill-opacity="0.9"/>
<rect x="10" y="21" width="1" height="2" fill="white" fill-opacity="0.9"/>
<defs>
<linearGradient id="paint0_linear_3826_1724" x1="15" y1="0" x2="15" y2="30" gradientUnits="userSpaceOnUse">
<stop stop-color="#1AB2EF"/>
<stop offset="1" stop-color="#176BE3"/>
</linearGradient>
</defs>
</svg>
