<svg width="200" height="200" viewBox="0 0 200 200" fill="none" xmlns="http://www.w3.org/2000/svg">
<rect width="200" height="200" fill="#356D9A"/>
<path d="M80 153.333H73.3333V160H80V153.333Z" fill="#EFB15E" fill-opacity="0.5"/>
<path d="M86.6667 153.333H80V160H86.6667V153.333Z" fill="#EFB15E" fill-opacity="0.5"/>
<path d="M113.333 153.333H106.667V160H113.333V153.333Z" fill="#EFB15E" fill-opacity="0.5"/>
<path d="M120 153.333H113.333V160H120V153.333Z" fill="#EFB15E" fill-opacity="0.5"/>
<path d="M80 140H73.3333V146.667H80V140Z" fill="#EFB15E" fill-opacity="0.5"/>
<path d="M86.6667 140H80V146.667H86.6667V140Z" fill="#EFB15E" fill-opacity="0.5"/>
<path d="M93.3333 140H86.6666V146.667H93.3333V140Z" fill="#EFB15E" fill-opacity="0.5"/>
<path d="M100 140H93.3333V146.667H100V140Z" fill="#EFB15E" fill-opacity="0.5"/>
<path d="M106.667 140H100V146.667H106.667V140Z" fill="#EFB15E" fill-opacity="0.5"/>
<path d="M113.333 140H106.667V146.667H113.333V140Z" fill="#EFB15E" fill-opacity="0.5"/>
<path d="M120 140H113.333V146.667H120V140Z" fill="#EFB15E" fill-opacity="0.5"/>
<path d="M80 146.667H73.3333V153.333H80V146.667Z" fill="#EFB15E" fill-opacity="0.5"/>
<path d="M86.6667 146.667H80V153.333H86.6667V146.667Z" fill="#EFB15E" fill-opacity="0.5"/>
<path d="M93.3333 146.667H86.6666V153.333H93.3333V146.667Z" fill="#EFB15E" fill-opacity="0.5"/>
<path d="M106.667 146.667H100V153.333H106.667V146.667Z" fill="#EFB15E" fill-opacity="0.5"/>
<path d="M113.333 146.667H106.667V153.333H113.333V146.667Z" fill="#EFB15E" fill-opacity="0.5"/>
<path d="M120 146.667H113.333V153.333H120V146.667Z" fill="#EFB15E" fill-opacity="0.5"/>
<path d="M80 113.333H73.3333V120H80V113.333Z" fill="#EFB15E" fill-opacity="0.5"/>
<path d="M86.6667 113.333H80V120H86.6667V113.333Z" fill="#EFB15E" fill-opacity="0.5"/>
<path d="M93.3334 113.333H86.6667V120H93.3334V113.333Z" fill="#EFB15E" fill-opacity="0.5"/>
<path d="M100 113.333H93.3333V120H100V113.333Z" fill="#EFB15E" fill-opacity="0.5"/>
<path d="M106.667 113.333H100V120H106.667V113.333Z" fill="#EFB15E" fill-opacity="0.5"/>
<path d="M113.333 113.333H106.667V120H113.333V113.333Z" fill="#EFB15E" fill-opacity="0.5"/>
<path d="M120 113.333H113.333V120H120V113.333Z" fill="#EFB15E" fill-opacity="0.5"/>
<path d="M80 120H73.3333V126.667H80V120Z" fill="#EFB15E" fill-opacity="0.5"/>
<path d="M86.6667 120H80V126.667H86.6667V120Z" fill="#D69743" fill-opacity="0.5"/>
<path d="M100 120H93.3333V126.667H100V120Z" fill="#EFB15E" fill-opacity="0.5"/>
<path d="M106.667 120H100V126.667H106.667V120Z" fill="#EFB15E" fill-opacity="0.5"/>
<path d="M113.333 120H106.667V126.667H113.333V120Z" fill="#D69743" fill-opacity="0.5"/>
<path d="M80 126.667H73.3333V133.333H80V126.667Z" fill="#EFB15E" fill-opacity="0.5"/>
<path d="M80 133.333H73.3333V140H80V133.333Z" fill="#EFB15E" fill-opacity="0.5"/>
<path d="M86.6667 133.333H80V140H86.6667V133.333Z" fill="#EFB15E" fill-opacity="0.5"/>
<path d="M93.3334 133.333H86.6667V140H93.3334V133.333Z" fill="#EFB15E" fill-opacity="0.5"/>
<path d="M100 133.333H93.3333V140H100V133.333Z" fill="#EFB15E" fill-opacity="0.5"/>
<path d="M106.667 133.333H100V140H106.667V133.333Z" fill="#EFB15E" fill-opacity="0.5"/>
<path d="M113.333 133.333H106.667V140H113.333V133.333Z" fill="#EFB15E" fill-opacity="0.5"/>
<path d="M120 133.333H113.333V140H120V133.333Z" fill="#EFB15E" fill-opacity="0.5"/>
<path d="M86.6667 126.667H80V133.333H86.6667V126.667Z" fill="#EFB15E" fill-opacity="0.5"/>
<path d="M93.3334 126.667H86.6667V133.333H93.3334V126.667Z" fill="#EFB15E" fill-opacity="0.5"/>
<path d="M100 126.667H93.3333V133.333H100V126.667Z" fill="#EFB15E" fill-opacity="0.5"/>
<path d="M106.667 126.667H100V133.333H106.667V126.667Z" fill="#EFB15E" fill-opacity="0.5"/>
<path d="M113.333 126.667H106.667V133.333H113.333V126.667Z" fill="#EFB15E" fill-opacity="0.5"/>
<path d="M120 126.667H113.333V133.333H120V126.667Z" fill="#EFB15E" fill-opacity="0.5"/>
<path d="M126.667 113.333H120V120H126.667V113.333Z" fill="#EFB15E" fill-opacity="0.5"/>
<path d="M126.667 120H120V126.667H126.667V120Z" fill="#EFB15E" fill-opacity="0.5"/>
<path d="M133.333 120H126.667V126.667H133.333V120Z" fill="#EFB15E" fill-opacity="0.5"/>
<path d="M126.667 126.667H120V133.333H126.667V126.667Z" fill="#D69743" fill-opacity="0.5"/>
<path d="M126.667 133.333H120V140H126.667V133.333Z" fill="#D69743" fill-opacity="0.5"/>
<path d="M133.333 126.667H126.667V133.333H133.333V126.667Z" fill="#EFB15E" fill-opacity="0.5"/>
<path d="M133.333 133.333H126.667V140H133.333V133.333Z" fill="#EFB15E" fill-opacity="0.5"/>
<path d="M73.3334 113.333H66.6667V120H73.3334V113.333Z" fill="#EFB15E" fill-opacity="0.5"/>
<path d="M66.6667 120H60V126.667H66.6667V120Z" fill="#EFB15E" fill-opacity="0.5"/>
<path d="M66.6667 126.667H60V133.333H66.6667V126.667Z" fill="#EFB15E" fill-opacity="0.5"/>
<path d="M66.6667 133.333H60V140H66.6667V133.333Z" fill="#EFB15E" fill-opacity="0.5"/>
<path d="M73.3334 126.667H66.6667V133.333H73.3334V126.667Z" fill="#D69743" fill-opacity="0.5"/>
<path d="M73.3334 133.333H66.6667V140H73.3334V133.333Z" fill="#D69743" fill-opacity="0.5"/>
<path d="M73.3334 120H66.6667V126.667H73.3334V120Z" fill="#EFB15E" fill-opacity="0.5"/>
<path d="M93.3334 120H86.6667V126.667H93.3334V120Z" fill="#EFB15E" fill-opacity="0.5"/>
<path d="M120 120H113.333V126.667H120V120Z" fill="#EFB15E" fill-opacity="0.5"/>
<path d="M80 106.667H73.3333V113.333H80V106.667Z" fill="#D69743" fill-opacity="0.5"/>
<path d="M86.6667 106.667H80V113.333H86.6667V106.667Z" fill="#D69743" fill-opacity="0.5"/>
<path d="M93.3333 106.667H86.6666V113.333H93.3333V106.667Z" fill="#D69743" fill-opacity="0.5"/>
<path d="M100 106.667H93.3333V113.333H100V106.667Z" fill="#D69743" fill-opacity="0.5"/>
<path d="M106.667 106.667H100V113.333H106.667V106.667Z" fill="#D69743" fill-opacity="0.5"/>
<path d="M113.333 106.667H106.667V113.333H113.333V106.667Z" fill="#D69743" fill-opacity="0.5"/>
<path d="M120 106.667H113.333V113.333H120V106.667Z" fill="#D69743" fill-opacity="0.5"/>
<path d="M106.667 100H100V106.667H106.667V100Z" fill="#EFB15E" fill-opacity="0.5"/>
<path d="M113.333 100H106.667V106.667H113.333V100Z" fill="#EFB15E" fill-opacity="0.5"/>
<path d="M80 60H73.3333V66.6667H80V60Z" fill="#EFB15E" fill-opacity="0.5"/>
<path d="M100 80H93.3333V86.6667H100V80Z" fill="#EFB15E" fill-opacity="0.5"/>
<path d="M86.6667 60H80V66.6667H86.6667V60Z" fill="#EFB15E" fill-opacity="0.5"/>
<path d="M93.3334 60H86.6667V66.6667H93.3334V60Z" fill="#EFB15E" fill-opacity="0.5"/>
<path d="M100 60H93.3333V66.6667H100V60Z" fill="#EFB15E" fill-opacity="0.5"/>
<path d="M106.667 60H100V66.6667H106.667V60Z" fill="#EFB15E" fill-opacity="0.5"/>
<path d="M113.333 60H106.667V66.6667H113.333V60Z" fill="#EFB15E" fill-opacity="0.5"/>
<path d="M120 60H113.333V66.6667H120V60Z" fill="#EFB15E" fill-opacity="0.5"/>
<path d="M126.667 60H120V66.6667H126.667V60Z" fill="#EFB15E" fill-opacity="0.5"/>
<path d="M73.3334 66.6667H66.6667V73.3334H73.3334V66.6667Z" fill="#EFB15E" fill-opacity="0.5"/>
<path d="M80 66.6667H73.3333V73.3334H80V66.6667Z" fill="#EFB15E" fill-opacity="0.5"/>
<path d="M86.6667 66.6667H80V73.3334H86.6667V66.6667Z" fill="#EFB15E" fill-opacity="0.5"/>
<path d="M93.3334 66.6667H86.6667V73.3334H93.3334V66.6667Z" fill="#EFB15E" fill-opacity="0.5"/>
<path d="M100 66.6667H93.3333V73.3334H100V66.6667Z" fill="#EFB15E" fill-opacity="0.5"/>
<path d="M106.667 66.6667H100V73.3334H106.667V66.6667Z" fill="#EFB15E" fill-opacity="0.5"/>
<path d="M113.333 66.6667H106.667V73.3334H113.333V66.6667Z" fill="#EFB15E" fill-opacity="0.5"/>
<path d="M120 66.6667H113.333V73.3334H120V66.6667Z" fill="#EFB15E" fill-opacity="0.5"/>
<path d="M126.667 66.6667H120V73.3334H126.667V66.6667Z" fill="#EFB15E" fill-opacity="0.5"/>
<path d="M133.333 66.6667H126.667V73.3334H133.333V66.6667Z" fill="#EFB15E" fill-opacity="0.5"/>
<path d="M73.3334 73.3333H66.6667V80H73.3334V73.3333Z" fill="#EFB15E" fill-opacity="0.5"/>
<path d="M80 73.3333H73.3333V80H80V73.3333Z" fill="#EFB15E" fill-opacity="0.5"/>
<path d="M86.6667 73.3333H80V80H86.6667V73.3333Z" fill="#EFB15E" fill-opacity="0.5"/>
<path d="M93.3334 73.3333H86.6667V80H93.3334V73.3333Z" fill="#EFB15E" fill-opacity="0.5"/>
<path d="M100 73.3333H93.3333V80H100V73.3333Z" fill="#EFB15E" fill-opacity="0.5"/>
<path d="M106.667 73.3333H100V80H106.667V73.3333Z" fill="#EFB15E" fill-opacity="0.5"/>
<path d="M113.333 73.3333H106.667V80H113.333V73.3333Z" fill="#EFB15E" fill-opacity="0.5"/>
<path d="M120 73.3333H113.333V80H120V73.3333Z" fill="#EFB15E" fill-opacity="0.5"/>
<path d="M126.667 73.3333H120V80H126.667V73.3333Z" fill="#EFB15E" fill-opacity="0.5"/>
<path d="M133.333 73.3333H126.667V80H133.333V73.3333Z" fill="#EFB15E" fill-opacity="0.5"/>
<path d="M73.3334 80H66.6667V86.6667H73.3334V80Z" fill="#EFB15E" fill-opacity="0.5"/>
<path d="M80 80H73.3333V86.6667H80V80Z" fill="#EFB15E" fill-opacity="0.5"/>
<path d="M106.667 80H100V86.6667H106.667V80Z" fill="#EFB15E" fill-opacity="0.5"/>
<path d="M113.333 80H106.667V86.6667H113.333V80Z" fill="#EFB15E" fill-opacity="0.5"/>
<path d="M73.3334 86.6667H66.6667V93.3333H73.3334V86.6667Z" fill="#EFB15E" fill-opacity="0.5"/>
<path d="M80 86.6667H73.3333V93.3333H80V86.6667Z" fill="#EFB15E" fill-opacity="0.5"/>
<path d="M73.3334 93.3333H66.6667V100H73.3334V93.3333Z" fill="#EFB15E" fill-opacity="0.5"/>
<path d="M80 93.3333H73.3333V100H80V93.3333Z" fill="#EFB15E" fill-opacity="0.5"/>
<path d="M93.3334 93.3333H86.6667V100H93.3334V93.3333Z" fill="#EFB15E" fill-opacity="0.5"/>
<path d="M100 93.3333H93.3333V100H100V93.3333Z" fill="#EFB15E" fill-opacity="0.5"/>
<path d="M106.667 93.3333H100V100H106.667V93.3333Z" fill="#EFB15E" fill-opacity="0.5"/>
<path d="M113.333 93.3333H106.667V100H113.333V93.3333Z" fill="#EFB15E" fill-opacity="0.5"/>
<path d="M120 93.3333H113.333V100H120V93.3333Z" fill="#EFB15E" fill-opacity="0.5"/>
<path d="M126.667 93.3333H120V100H126.667V93.3333Z" fill="#EFB15E" fill-opacity="0.5"/>
<path d="M133.333 93.3333H126.667V100H133.333V93.3333Z" fill="#EFB15E" fill-opacity="0.5"/>
<path d="M80 100H73.3333V106.667H80V100Z" fill="#EFB15E" fill-opacity="0.5"/>
<path d="M86.6667 100H80V106.667H86.6667V100Z" fill="#EFB15E" fill-opacity="0.5"/>
<path d="M93.3334 100H86.6667V106.667H93.3334V100Z" fill="#EFB15E" fill-opacity="0.5"/>
<path d="M100 100H93.3333V106.667H100V100Z" fill="#EFB15E" fill-opacity="0.5"/>
<path d="M120 100H113.333V106.667H120V100Z" fill="#EFB15E" fill-opacity="0.5"/>
<path d="M126.667 100H120V106.667H126.667V100Z" fill="#EFB15E" fill-opacity="0.5"/>
<path d="M86.6667 93.3333H80V100H86.6667V93.3333Z" fill="#EFB15E" fill-opacity="0.5"/>
<path d="M133.333 86.6667H126.667V93.3333H133.333V86.6667Z" fill="#EFB15E" fill-opacity="0.5"/>
<path d="M133.333 80H126.667V86.6667H133.333V80Z" fill="#EFB15E" fill-opacity="0.5"/>
<path d="M66.6667 80H60V86.6667H66.6667V80Z" fill="#D69743" fill-opacity="0.5"/>
<path d="M66.6667 86.6667H60V93.3333H66.6667V86.6667Z" fill="#D69743" fill-opacity="0.5"/>
<path d="M126.667 80H120V86.6667H126.667V80Z" fill="black" fill-opacity="0.5"/>
<path d="M126.667 86.6667H120V93.3333H126.667V86.6667Z" fill="black" fill-opacity="0.5"/>
<path d="M120 86.6667H113.333V93.3333H120V86.6667Z" fill="white" fill-opacity="0.5"/>
<path d="M120 80H113.333V86.6667H120V80Z" fill="white" fill-opacity="0.5"/>
<path d="M93.3334 80H86.6667V86.6667H93.3334V80Z" fill="black" fill-opacity="0.5"/>
<path d="M86.6667 80H80V86.6667H86.6667V80Z" fill="white" fill-opacity="0.5"/>
<path d="M86.6667 86.6667H80V93.3333H86.6667V86.6667Z" fill="white" fill-opacity="0.5"/>
<path d="M93.3334 86.6667H86.6667V93.3333H93.3334V86.6667Z" fill="black" fill-opacity="0.5"/>
<path d="M106.667 86.6667H100V93.3333H106.667V86.6667Z" fill="#D69743" fill-opacity="0.5"/>
<path d="M100 86.6667H93.3333V93.3333H100V86.6667Z" fill="#D69743" fill-opacity="0.5"/>
<path d="M113.333 86.6667H106.667V93.3333H113.333V86.6667Z" fill="#D69743" fill-opacity="0.5"/>
</svg>
