<svg shape-rendering="crispEdges" viewBox="0 0 30 30" fill="none" xmlns="http://www.w3.org/2000/svg"><style> body{overflow: hidden; margin: 0;} svg{ max-width: 100vw; max-height: 100vh; width: 100%;} #main rect{width:1px; height: 1px;} .bg{width:30px; height: 30px;} .on { scale: 177%; transform: translate(-6px, -3px); } .off { scale: 100%; transform: translate(0px, 0px); } .button { cursor: pointer; fill: transparent; } .closed{ transform: translate(0px, 30px); } .open{ transform: translate(0px, 0px); } </style><style>body, svg{ background: #0D6E9D; }.bg { fill: #0D6E9D; }</style><rect class="bg"/><g id="main" class="off"><g id="Body"><rect x="11" y="9" width="1" height="1" fill="#ead9d8"/><rect x="12" y="9" width="1" height="1" fill="#ead9d8"/><rect x="13" y="9" width="1" height="1" fill="#ead9d8"/><rect x="14" y="9" width="1" height="1" fill="#ead9d8"/><rect x="15" y="9" width="1" height="1" fill="#ead9d8"/><rect x="16" y="9" width="1" height="1" fill="#ead9d8"/><rect x="17" y="9" width="1" height="1" fill="#ead9d8"/><rect x="18" y="9" width="1" height="1" fill="#ead9d8"/><rect x="10" y="10" width="1" height="1" fill="#ead9d8"/><rect x="11" y="10" width="1" height="1" fill="#ead9d8"/><rect x="12" y="10" width="1" height="1" fill="#ead9d8"/><rect x="13" y="10" width="1" height="1" fill="#ead9d8"/><rect x="14" y="10" width="1" height="1" fill="#ead9d8"/><rect x="15" y="10" width="1" height="1" fill="#ead9d8"/><rect x="16" y="10" width="1" height="1" fill="#ead9d8"/><rect x="17" y="10" width="1" height="1" fill="#ead9d8"/><rect x="18" y="10" width="1" height="1" fill="#ead9d8"/><rect x="19" y="10" width="1" height="1" fill="#ead9d8"/><rect x="10" y="11" width="1" height="1" fill="#ead9d8"/><rect x="11" y="11" width="1" height="1" fill="#ead9d8"/><rect x="12" y="11" width="1" height="1" fill="#ead9d8"/><rect x="13" y="11" width="1" height="1" fill="#ead9d8"/><rect x="14" y="11" width="1" height="1" fill="#ead9d8"/><rect x="15" y="11" width="1" height="1" fill="#ead9d8"/><rect x="16" y="11" width="1" height="1" fill="#ead9d8"/><rect x="17" y="11" width="1" height="1" fill="#ead9d8"/><rect x="18" y="11" width="1" height="1" fill="#ead9d8"/><rect x="19" y="11" width="1" height="1" fill="#ead9d8"/><rect x="9" y="12" width="1" height="1" fill="#e2caca"/><rect x="10" y="12" width="1" height="1" fill="#ead9d8"/><rect x="11" y="12" width="1" height="1" fill="#ead9d8"/><rect x="12" y="12" width="1" height="1" fill="#ffffff"/><rect x="13" y="12" width="1" height="1" fill="#000000"/><rect x="14" y="12" width="1" height="1" fill="#ead9d8"/><rect x="15" y="12" width="1" height="1" fill="#ead9d8"/><rect x="16" y="12" width="1" height="1" fill="#ead9d8"/><rect x="17" y="12" width="1" height="1" fill="#ffffff"/><rect x="18" y="12" width="1" height="1" fill="#000000"/><rect x="19" y="12" width="1" height="1" fill="#ead9d8"/><rect x="9" y="13" width="1" height="1" fill="#e2caca"/><rect x="10" y="13" width="1" height="1" fill="#ead9d8"/><rect x="11" y="13" width="1" height="1" fill="#ead9d8"/><rect x="12" y="13" width="1" height="1" fill="#ffffff"/><rect x="13" y="13" width="1" height="1" fill="#000000"/><rect x="14" y="13" width="1" height="1" fill="#e2caca"/><rect x="15" y="13" width="1" height="1" fill="#e2caca"/><rect x="16" y="13" width="1" height="1" fill="#e2caca"/><rect x="17" y="13" width="1" height="1" fill="#ffffff"/><rect x="18" y="13" width="1" height="1" fill="#000000"/><rect x="19" y="13" width="1" height="1" fill="#ead9d8"/><rect x="10" y="14" width="1" height="1" fill="#ead9d8"/><rect x="11" y="14" width="1" height="1" fill="#ead9d8"/><rect x="12" y="14" width="1" height="1" fill="#ead9d8"/><rect x="13" y="14" width="1" height="1" fill="#ead9d8"/><rect x="14" y="14" width="1" height="1" fill="#ead9d8"/><rect x="15" y="14" width="1" height="1" fill="#ead9d8"/><rect x="16" y="14" width="1" height="1" fill="#ead9d8"/><rect x="17" y="14" width="1" height="1" fill="#ead9d8"/><rect x="18" y="14" width="1" height="1" fill="#ead9d8"/><rect x="19" y="14" width="1" height="1" fill="#ead9d8"/><rect x="11" y="15" width="1" height="1" fill="#ead9d8"/><rect x="12" y="15" width="1" height="1" fill="#ead9d8"/><rect x="13" y="15" width="1" height="1" fill="#ead9d8"/><rect x="14" y="15" width="1" height="1" fill="#ead9d8"/><rect x="15" y="15" width="1" height="1" fill="#ead9d8"/><rect x="16" y="15" width="1" height="1" fill="#ead9d8"/><rect x="17" y="15" width="1" height="1" fill="#ead9d8"/><rect x="18" y="15" width="1" height="1" fill="#ead9d8"/><rect x="11" y="16" width="1" height="1" fill="#e2caca"/><rect x="12" y="16" width="1" height="1" fill="#e2caca"/><rect x="13" y="16" width="1" height="1" fill="#e2caca"/><rect x="14" y="16" width="1" height="1" fill="#e2caca"/><rect x="15" y="16" width="1" height="1" fill="#e2caca"/><rect x="16" y="16" width="1" height="1" fill="#e2caca"/><rect x="17" y="16" width="1" height="1" fill="#e2caca"/><rect x="10" y="17" width="1" height="1" fill="#ead9d8"/><rect x="11" y="17" width="1" height="1" fill="#ead9d8"/><rect x="12" y="17" width="1" height="1" fill="#ead9d8"/><rect x="13" y="17" width="1" height="1" fill="#ead9d8"/><rect x="14" y="17" width="1" height="1" fill="#ead9d8"/><rect x="15" y="17" width="1" height="1" fill="#ead9d8"/><rect x="16" y="17" width="1" height="1" fill="#ead9d8"/><rect x="17" y="17" width="1" height="1" fill="#ead9d8"/><rect x="18" y="17" width="1" height="1" fill="#ead9d8"/><rect x="9" y="18" width="1" height="1" fill="#ead9d8"/><rect x="10" y="18" width="1" height="1" fill="#ead9d8"/><rect x="11" y="18" width="1" height="1" fill="#ead9d8"/><rect x="12" y="18" width="1" height="1" fill="#e2caca"/><rect x="13" y="18" width="1" height="1" fill="#ead9d8"/><rect x="14" y="18" width="1" height="1" fill="#ead9d8"/><rect x="15" y="18" width="1" height="1" fill="#ead9d8"/><rect x="16" y="18" width="1" height="1" fill="#e2caca"/><rect x="17" y="18" width="1" height="1" fill="#ead9d8"/><rect x="18" y="18" width="1" height="1" fill="#ead9d8"/><rect x="19" y="18" width="1" height="1" fill="#ead9d8"/><rect x="9" y="19" width="1" height="1" fill="#ead9d8"/><rect x="10" y="19" width="1" height="1" fill="#e2caca"/><rect x="11" y="19" width="1" height="1" fill="#ead9d8"/><rect x="12" y="19" width="1" height="1" fill="#ead9d8"/><rect x="13" y="19" width="1" height="1" fill="#ead9d8"/><rect x="14" y="19" width="1" height="1" fill="#ead9d8"/><rect x="15" y="19" width="1" height="1" fill="#ead9d8"/><rect x="16" y="19" width="1" height="1" fill="#ead9d8"/><rect x="17" y="19" width="1" height="1" fill="#ead9d8"/><rect x="18" y="19" width="1" height="1" fill="#e2caca"/><rect x="19" y="19" width="1" height="1" fill="#ead9d8"/><rect x="9" y="20" width="1" height="1" fill="#ead9d8"/><rect x="10" y="20" width="1" height="1" fill="#e2caca"/><rect x="11" y="20" width="1" height="1" fill="#ead9d8"/><rect x="12" y="20" width="1" height="1" fill="#ead9d8"/><rect x="13" y="20" width="1" height="1" fill="#ead9d8"/><rect x="14" y="20" width="1" height="1" fill="#ead9d8"/><rect x="15" y="20" width="1" height="1" fill="#ead9d8"/><rect x="16" y="20" width="1" height="1" fill="#ead9d8"/><rect x="17" y="20" width="1" height="1" fill="#ead9d8"/><rect x="18" y="20" width="1" height="1" fill="#e2caca"/><rect x="19" y="20" width="1" height="1" fill="#ead9d8"/><rect x="11" y="21" width="1" height="1" fill="#ead9d8"/><rect x="12" y="21" width="1" height="1" fill="#ead9d8"/><rect x="13" y="21" width="1" height="1" fill="#ead9d8"/><rect x="14" y="21" width="1" height="1" fill="#ead9d8"/><rect x="15" y="21" width="1" height="1" fill="#ead9d8"/><rect x="16" y="21" width="1" height="1" fill="#ead9d8"/><rect x="17" y="21" width="1" height="1" fill="#ead9d8"/><rect x="11" y="22" width="1" height="1" fill="#ead9d8"/><rect x="12" y="22" width="1" height="1" fill="#ead9d8"/><rect x="13" y="22" width="1" height="1" fill="#ead9d8"/><rect x="15" y="22" width="1" height="1" fill="#ead9d8"/><rect x="16" y="22" width="1" height="1" fill="#ead9d8"/><rect x="17" y="22" width="1" height="1" fill="#ead9d8"/><rect x="11" y="23" width="1" height="1" fill="#ead9d8"/><rect x="12" y="23" width="1" height="1" fill="#ead9d8"/><rect x="16" y="23" width="1" height="1" fill="#ead9d8"/><rect x="17" y="23" width="1" height="1" fill="#ead9d8"/></g><g id="Trait"><rect x="11" y="7" width="1" height="1" fill="#9303f0"/><rect x="12" y="7" width="1" height="1" fill="#880fd6"/><rect x="13" y="7" width="1" height="1" fill="#880fd6"/><rect x="14" y="7" width="1" height="1" fill="#880fd6"/><rect x="15" y="7" width="1" height="1" fill="#9303f0"/><rect x="16" y="7" width="1" height="1" fill="#9303f0"/><rect x="17" y="7" width="1" height="1" fill="#9303f0"/><rect x="10" y="8" width="1" height="1" fill="#880fd6"/><rect x="11" y="8" width="1" height="1" fill="#880fd6"/><rect x="12" y="8" width="1" height="1" fill="#880fd6"/><rect x="13" y="8" width="1" height="1" fill="#880fd6"/><rect x="14" y="8" width="1" height="1" fill="#880fd6"/><rect x="15" y="8" width="1" height="1" fill="#880fd6"/><rect x="16" y="8" width="1" height="1" fill="#880fd6"/><rect x="17" y="8" width="1" height="1" fill="#880fd6"/><rect x="18" y="8" width="1" height="1" fill="#9303f0"/><rect x="9" y="9" width="1" height="1" fill="#880fd6"/><rect x="10" y="9" width="1" height="1" fill="#880fd6"/><rect x="11" y="9" width="1" height="1" fill="#880fd6"/><rect x="12" y="9" width="1" height="1" fill="#880fd6"/><rect x="13" y="9" width="1" height="1" fill="#880fd6"/><rect x="14" y="9" width="1" height="1" fill="#880fd6"/><rect x="15" y="9" width="1" height="1" fill="#880fd6"/><rect x="16" y="9" width="1" height="1" fill="#880fd6"/><rect x="17" y="9" width="1" height="1" fill="#880fd6"/><rect x="18" y="9" width="1" height="1" fill="#9303f0"/><rect x="19" y="9" width="1" height="1" fill="#9303f0"/><rect x="9" y="10" width="1" height="1" fill="#880fd6"/><rect x="10" y="10" width="1" height="1" fill="#880fd6"/><rect x="11" y="10" width="1" height="1" fill="#880fd6"/><rect x="19" y="10" width="1" height="1" fill="#9303f0"/><rect x="9" y="11" width="1" height="1" fill="#880fd6"/><rect x="10" y="11" width="1" height="1" fill="#880fd6"/><rect x="9" y="12" width="1" height="1" fill="#880fd6"/><rect x="10" y="12" width="1" height="1" fill="#880fd6"/><rect x="9" y="13" width="1" height="1" fill="#880fd6"/><rect x="10" y="13" width="1" height="1" fill="#880fd6"/><rect x="9" y="14" width="1" height="1" fill="#880fd6"/><rect x="10" y="14" width="1" height="1" fill="#880fd6"/><rect x="9" y="15" width="1" height="1" fill="#880fd6"/><rect x="10" y="15" width="1" height="1" fill="#880fd6"/><rect x="19" y="15" width="1" height="1" fill="#9303f0"/><rect x="9" y="16" width="1" height="1" fill="#880fd6"/><rect x="10" y="16" width="1" height="1" fill="#880fd6"/><rect x="11" y="16" width="1" height="1" fill="#880fd6"/><rect x="18" y="16" width="1" height="1" fill="#9303f0"/><rect x="19" y="16" width="1" height="1" fill="#9303f0"/><rect x="9" y="17" width="1" height="1" fill="#880fd6"/><rect x="19" y="17" width="1" height="1" fill="#9303f0"/></g><g id="Trait"><rect x="23" y="10" width="1" height="1" fill="#533900"/><rect x="24" y="10" width="1" height="1" fill="#533900"/><rect x="25" y="10" width="1" height="1" fill="#533900"/><rect x="22" y="11" width="1" height="1" fill="#533900"/><rect x="23" y="11" width="1" height="1" fill="#533900"/><rect x="25" y="11" width="1" height="1" fill="#533900"/><rect x="26" y="11" width="1" height="1" fill="#533900"/><rect x="22" y="12" width="1" height="1" fill="#533900"/><rect x="26" y="12" width="1" height="1" fill="#533900"/><rect x="27" y="12" width="1" height="1" fill="#533900"/><rect x="22" y="13" width="1" height="1" fill="#533900"/><rect x="24" y="13" width="1" height="1" fill="#533901"/><rect x="26" y="13" width="1" height="1" fill="#533900"/><rect x="27" y="13" width="1" height="1" fill="#533900"/><rect x="22" y="14" width="1" height="1" fill="#533900"/><rect x="24" y="14" width="1" height="1" fill="#533900"/><rect x="25" y="14" width="1" height="1" fill="#533900"/><rect x="26" y="14" width="1" height="1" fill="#533900"/><rect x="27" y="14" width="1" height="1" fill="#533900"/><rect x="21" y="15" width="1" height="1" fill="#533900"/><rect x="25" y="15" width="1" height="1" fill="#533900"/><rect x="26" y="15" width="1" height="1" fill="#533900"/><rect x="21" y="16" width="1" height="1" fill="#533900"/><rect x="21" y="17" width="1" height="1" fill="#533900"/><rect x="20" y="18" width="1" height="1" fill="#533900"/><rect x="20" y="19" width="1" height="1" fill="#533900"/><rect x="21" y="19" width="1" height="1" fill="#efb15e"/><rect x="20" y="20" width="1" height="1" fill="#533900"/><rect x="21" y="20" width="1" height="1" fill="#efb15e"/><rect x="19" y="21" width="1" height="1" fill="#533900"/><rect x="19" y="22" width="1" height="1" fill="#533900"/><rect x="19" y="23" width="1" height="1" fill="#533900"/></g><g id="Trait"><rect x="11" y="16" width="1" height="1" fill="#1a2099"/><rect x="12" y="16" width="1" height="1" fill="#1a2099"/><rect x="17" y="16" width="1" height="1" fill="#1a2099"/><rect x="10" y="17" width="1" height="1" fill="#1a2099"/><rect x="11" y="17" width="1" height="1" fill="#1a2099"/><rect x="12" y="17" width="1" height="1" fill="#1a2099"/><rect x="13" y="17" width="1" height="1" fill="#1a2099"/><rect x="14" y="17" width="1" height="1" fill="#f1f6f8"/><rect x="15" y="17" width="1" height="1" fill="#f1f6f8"/><rect x="16" y="17" width="1" height="1" fill="#f1f6f8"/><rect x="17" y="17" width="1" height="1" fill="#1a2099"/><rect x="18" y="17" width="1" height="1" fill="#1a2099"/><rect x="9" y="18" width="1" height="1" fill="#1a2099"/><rect x="10" y="18" width="1" height="1" fill="#1a2099"/><rect x="11" y="18" width="1" height="1" fill="#1a2099"/><rect x="12" y="18" width="1" height="1" fill="#1a2099"/><rect x="13" y="18" width="1" height="1" fill="#1a2099"/><rect x="14" y="18" width="1" height="1" fill="#f1f6f8"/><rect x="15" y="18" width="1" height="1" fill="#f1f6f8"/><rect x="16" y="18" width="1" height="1" fill="#e7e6e5"/><rect x="17" y="18" width="1" height="1" fill="#1a2099"/><rect x="18" y="18" width="1" height="1" fill="#1a2099"/><rect x="19" y="18" width="1" height="1" fill="#1a2099"/><rect x="9" y="19" width="1" height="1" fill="#1a2099"/><rect x="10" y="19" width="1" height="1" fill="#1a2099"/><rect x="11" y="19" width="1" height="1" fill="#1a2099"/><rect x="12" y="19" width="1" height="1" fill="#1a2099"/><rect x="13" y="19" width="1" height="1" fill="#1a2099"/><rect x="14" y="19" width="1" height="1" fill="#f1f6f8"/><rect x="15" y="19" width="1" height="1" fill="#f1f6f8"/><rect x="16" y="19" width="1" height="1" fill="#f1f6f8"/><rect x="17" y="19" width="1" height="1" fill="#1a2099"/><rect x="18" y="19" width="1" height="1" fill="#1a2099"/><rect x="19" y="19" width="1" height="1" fill="#1a2099"/><rect x="11" y="20" width="1" height="1" fill="#1a2099"/><rect x="12" y="20" width="1" height="1" fill="#1a2099"/><rect x="13" y="20" width="1" height="1" fill="#1a2099"/><rect x="14" y="20" width="1" height="1" fill="#f1f6f8"/><rect x="15" y="20" width="1" height="1" fill="#f1f6f8"/><rect x="16" y="20" width="1" height="1" fill="#f1f6f8"/><rect x="17" y="20" width="1" height="1" fill="#1a2099"/></g><g id="Trait"><rect x="11" y="21" width="1" height="1" fill="#8119b7"/><rect x="12" y="21" width="1" height="1" fill="#8119b7"/><rect x="13" y="21" width="1" height="1" fill="#8119b7"/><rect x="14" y="21" width="1" height="1" fill="#8119b7"/><rect x="15" y="21" width="1" height="1" fill="#8119b7"/><rect x="16" y="21" width="1" height="1" fill="#8119b7"/><rect x="17" y="21" width="1" height="1" fill="#8119b7"/><rect x="11" y="22" width="1" height="1" fill="#8119b7"/><rect x="12" y="22" width="1" height="1" fill="#8119b7"/><rect x="13" y="22" width="1" height="1" fill="#8119b7"/><rect x="15" y="22" width="1" height="1" fill="#8119b7"/><rect x="16" y="22" width="1" height="1" fill="#8119b7"/><rect x="17" y="22" width="1" height="1" fill="#8119b7"/></g><g id="Trait"><rect x="11" y="23" width="1" height="1" fill="#000000"/><rect x="12" y="23" width="1" height="1" fill="#3f3f3f"/><rect x="16" y="23" width="1" height="1" fill="#000000"/><rect x="17" y="23" width="1" height="1" fill="#3f3f3f"/></g></g></svg> 